ISO-10303-21;
HEADER;
FILE_DESCRIPTION(('ViewDefinition [CoordinationView]'),'2;1');
FILE_NAME('','2026-09-11T22:42:49',(''),(''),'IfcOpenShell 0.8.5-1c5b825','IfcOpenShell 0.8.5-1c5b825','');
FILE_SCHEMA(('IFC4'));
ENDSEC;
DATA;
#1=IFCPROJECT('3CyZOCIN96rhvaDru0PCWX',$,'Expanded 3BHK Project',$,$,$,$,$,#5);
#2=IFCSIUNIT(*,.LENGTHUNIT.,$,.METRE.);
#3=IFCSIUNIT(*,.AREAUNIT.,$,.SQUARE_METRE.);
#4=IFCSIUNIT(*,.VOLUMEUNIT.,$,.CUBIC_METRE.);
#5=IFCUNITASSIGNMENT((#3,#4,#2));
#6=IFCGEOMETRICREPRESENTATIONCONTEXT($,'Model',3,1.0000000000000001E-05,$,$);
#7=IFCGEOMETRICREPRESENTATIONSUBCONTEXT('Body','Body',*,*,*,*,#6,$,.MODEL_VIEW.,$);
#8=IFCSITE('0TVP$zCW1EZuT$EFcsPXYX',$,'Premium Site',$,$,$,$,$,$,$,$,$,$,$);
#9=IFCBUILDING('0sxmftPMP2SO_1ynD7fC69',$,'Luxury Apartment',$,$,$,$,$,$,$,$,$);
#10=IFCBUILDINGSTOREY('3H1l5jnUvFO8uyV9Lv2nfK',$,'Ground Floor',$,$,$,$,$,$,$);
#11=IFCRELAGGREGATES('2JqC_ubJ9B$9FgJBXbzmpR',$,$,$,#1,(#8));
#12=IFCRELAGGREGATES('1ogv8Cg2b1ohc_V$qxkbIy',$,$,$,#8,(#9));
#13=IFCRELAGGREGATES('3Z3lH81ZDDx9kIKgXA8lSO',$,$,$,#9,(#10));
#14=IFCSLAB('0FBCSx4HX0tQTdQsvC5AAw',$,'Main Expanded Floor Slab Base',$,$,#32,#27,$,$);
#15=IFCRELCONTAINEDINSPATIALSTRUCTURE('2GFn8p8rT6VPDpdh$_9Rbw',$,$,$,(#620,#61,#314,#644,#107,#360,#534,#448,#406,#710,#153,#558,#756,#472,#14,#199,#245,#802,#38,#663,#848,#577,#84,#291,#337,#687,#491,#733,#515,#130,#383,#601,#176,#429,#779,#222,#268,#825),#10);
#16=IFCCARTESIANPOINT((0.,0.));
#17=IFCCARTESIANPOINT((12.5,0.));
#18=IFCCARTESIANPOINT((12.5,15.));
#19=IFCCARTESIANPOINT((0.,15.));
#20=IFCPOLYLINE((#16,#17,#18,#19,#16));
#21=IFCARBITRARYCLOSEDPROFILEDEF(.AREA.,$,#20);
#22=IFCDIRECTION((0.,0.,1.));
#23=IFCCARTESIANPOINT((0.,0.,0.));
#24=IFCAXIS2PLACEMENT3D(#23,$,$);
#25=IFCEXTRUDEDAREASOLID(#21,#24,#22,0.20000000000000001);
#26=IFCSHAPEREPRESENTATION(#7,'Body','SweptSolid',(#25));
#27=IFCPRODUCTDEFINITIONSHAPE($,$,(#26));
#28=IFCCARTESIANPOINT((0.,0.,-0.20000000000000001));
#29=IFCDIRECTION((0.,0.,1.));
#30=IFCDIRECTION((1.,0.,0.));
#31=IFCAXIS2PLACEMENT3D(#28,#29,#30);
#32=IFCLOCALPLACEMENT($,#31);
#33=IFCCOLOURRGB('SurfaceColor',0.20000000000000001,0.20000000000000001,0.25);
#34=IFCSURFACESTYLESHADING(#33,0.);
#35=IFCSURFACESTYLE('MaterialStyle',.BOTH.,(#34));
#36=IFCPRESENTATIONSTYLEASSIGNMENT((#35));
#37=IFCSTYLEDITEM(#25,(#36),$);
#38=IFCWALL('1dURI8y0X4k9zEYsn$vUOv',$,'Outer Structural Wall South',$,$,#55,#50,$,$);
#39=IFCCARTESIANPOINT((0.,0.));
#40=IFCCARTESIANPOINT((12.5,0.));
#41=IFCCARTESIANPOINT((12.5,0.23000000000000001));
#42=IFCCARTESIANPOINT((0.,0.23000000000000001));
#43=IFCPOLYLINE((#39,#40,#41,#42,#39));
#44=IFCARBITRARYCLOSEDPROFILEDEF(.AREA.,$,#43);
#45=IFCDIRECTION((0.,0.,1.));
#46=IFCCARTESIANPOINT((0.,0.,0.));
#47=IFCAXIS2PLACEMENT3D(#46,$,$);
#48=IFCEXTRUDEDAREASOLID(#44,#47,#45,3.);
#49=IFCSHAPEREPRESENTATION(#7,'Body','SweptSolid',(#48));
#50=IFCPRODUCTDEFINITIONSHAPE($,$,(#49));
#51=IFCCARTESIANPOINT((0.,0.,0.));
#52=IFCDIRECTION((0.,0.,1.));
#53=IFCDIRECTION((1.,0.,0.));
#54=IFCAXIS2PLACEMENT3D(#51,#52,#53);
#55=IFCLOCALPLACEMENT($,#54);
#56=IFCCOLOURRGB('SurfaceColor',0.94999999999999996,0.93000000000000005,0.88);
#57=IFCSURFACESTYLESHADING(#56,0.);
#58=IFCSURFACESTYLE('MaterialStyle',.BOTH.,(#57));
#59=IFCPRESENTATIONSTYLEASSIGNMENT((#58));
#60=IFCSTYLEDITEM(#48,(#59),$);
#61=IFCWALL('1UbjDVmov7Own0NZansm5D',$,'Outer Structural Wall North',$,$,#78,#73,$,$);
#62=IFCCARTESIANPOINT((0.,0.));
#63=IFCCARTESIANPOINT((12.5,0.));
#64=IFCCARTESIANPOINT((12.5,0.23000000000000001));
#65=IFCCARTESIANPOINT((0.,0.23000000000000001));
#66=IFCPOLYLINE((#62,#63,#64,#65,#62));
#67=IFCARBITRARYCLOSEDPROFILEDEF(.AREA.,$,#66);
#68=IFCDIRECTION((0.,0.,1.));
#69=IFCCARTESIANPOINT((0.,0.,0.));
#70=IFCAXIS2PLACEMENT3D(#69,$,$);
#71=IFCEXTRUDEDAREASOLID(#67,#70,#68,3.);
#72=IFCSHAPEREPRESENTATION(#7,'Body','SweptSolid',(#71));
#73=IFCPRODUCTDEFINITIONSHAPE($,$,(#72));
#74=IFCCARTESIANPOINT((0.,14.77,0.));
#75=IFCDIRECTION((0.,0.,1.));
#76=IFCDIRECTION((1.,0.,0.));
#77=IFCAXIS2PLACEMENT3D(#74,#75,#76);
#78=IFCLOCALPLACEMENT($,#77);
#79=IFCCOLOURRGB('SurfaceColor',0.94999999999999996,0.93000000000000005,0.88);
#80=IFCSURFACESTYLESHADING(#79,0.);
#81=IFCSURFACESTYLE('MaterialStyle',.BOTH.,(#80));
#82=IFCPRESENTATIONSTYLEASSIGNMENT((#81));
#83=IFCSTYLEDITEM(#71,(#82),$);
#84=IFCWALL('3VfzrRZ$f7n8meCQDZadYM',$,'Outer Structural Wall West',$,$,#101,#96,$,$);
#85=IFCCARTESIANPOINT((0.,0.));
#86=IFCCARTESIANPOINT((0.23000000000000001,0.));
#87=IFCCARTESIANPOINT((0.23000000000000001,15.));
#88=IFCCARTESIANPOINT((0.,15.));
#89=IFCPOLYLINE((#85,#86,#87,#88,#85));
#90=IFCARBITRARYCLOSEDPROFILEDEF(.AREA.,$,#89);
#91=IFCDIRECTION((0.,0.,1.));
#92=IFCCARTESIANPOINT((0.,0.,0.));
#93=IFCAXIS2PLACEMENT3D(#92,$,$);
#94=IFCEXTRUDEDAREASOLID(#90,#93,#91,3.);
#95=IFCSHAPEREPRESENTATION(#7,'Body','SweptSolid',(#94));
#96=IFCPRODUCTDEFINITIONSHAPE($,$,(#95));
#97=IFCCARTESIANPOINT((0.,0.,0.));
#98=IFCDIRECTION((0.,0.,1.));
#99=IFCDIRECTION((1.,0.,0.));
#100=IFCAXIS2PLACEMENT3D(#97,#98,#99);
#101=IFCLOCALPLACEMENT($,#100);
#102=IFCCOLOURRGB('SurfaceColor',0.94999999999999996,0.93000000000000005,0.88);
#103=IFCSURFACESTYLESHADING(#102,0.);
#104=IFCSURFACESTYLE('MaterialStyle',.BOTH.,(#103));
#105=IFCPRESENTATIONSTYLEASSIGNMENT((#104));
#106=IFCSTYLEDITEM(#94,(#105),$);
#107=IFCWALL('3lizLHiyz1leEXu4Bqho2P',$,'Outer Structural Wall East',$,$,#124,#119,$,$);
#108=IFCCARTESIANPOINT((0.,0.));
#109=IFCCARTESIANPOINT((0.23000000000000001,0.));
#110=IFCCARTESIANPOINT((0.23000000000000001,15.));
#111=IFCCARTESIANPOINT((0.,15.));
#112=IFCPOLYLINE((#108,#109,#110,#111,#108));
#113=IFCARBITRARYCLOSEDPROFILEDEF(.AREA.,$,#112);
#114=IFCDIRECTION((0.,0.,1.));
#115=IFCCARTESIANPOINT((0.,0.,0.));
#116=IFCAXIS2PLACEMENT3D(#115,$,$);
#117=IFCEXTRUDEDAREASOLID(#113,#116,#114,3.);
#118=IFCSHAPEREPRESENTATION(#7,'Body','SweptSolid',(#117));
#119=IFCPRODUCTDEFINITIONSHAPE($,$,(#118));
#120=IFCCARTESIANPOINT((12.27,0.,0.));
#121=IFCDIRECTION((0.,0.,1.));
#122=IFCDIRECTION((1.,0.,0.));
#123=IFCAXIS2PLACEMENT3D(#120,#121,#122);
#124=IFCLOCALPLACEMENT($,#123);
#125=IFCCOLOURRGB('SurfaceColor',0.94999999999999996,0.93000000000000005,0.88);
#126=IFCSURFACESTYLESHADING(#125,0.);
#127=IFCSURFACESTYLE('MaterialStyle',.BOTH.,(#126));
#128=IFCPRESENTATIONSTYLEASSIGNMENT((#127));
#129=IFCSTYLEDITEM(#117,(#128),$);
#130=IFCWALL('0TyBVeQr18se9TDAt7obKA',$,'Shared Bath West Boundary Wall',$,$,#147,#142,$,$);
#131=IFCCARTESIANPOINT((0.,0.));
#132=IFCCARTESIANPOINT((0.11,0.));
#133=IFCCARTESIANPOINT((0.11,2.3999999999999999));
#134=IFCCARTESIANPOINT((0.,2.3999999999999999));
#135=IFCPOLYLINE((#131,#132,#133,#134,#131));
#136=IFCARBITRARYCLOSEDPROFILEDEF(.AREA.,$,#135);
#137=IFCDIRECTION((0.,0.,1.));
#138=IFCCARTESIANPOINT((0.,0.,0.));
#139=IFCAXIS2PLACEMENT3D(#138,$,$);
#140=IFCEXTRUDEDAREASOLID(#136,#139,#137,3.);
#141=IFCSHAPEREPRESENTATION(#7,'Body','SweptSolid',(#140));
#142=IFCPRODUCTDEFINITIONSHAPE($,$,(#141));
#143=IFCCARTESIANPOINT((4.4000000000000004,12.369999999999999,0.));
#144=IFCDIRECTION((0.,0.,1.));
#145=IFCDIRECTION((1.,0.,0.));
#146=IFCAXIS2PLACEMENT3D(#143,#144,#145);
#147=IFCLOCALPLACEMENT($,#146);
#148=IFCCOLOURRGB('SurfaceColor',0.94999999999999996,0.93000000000000005,0.88);
#149=IFCSURFACESTYLESHADING(#148,0.);
#150=IFCSURFACESTYLE('MaterialStyle',.BOTH.,(#149));
#151=IFCPRESENTATIONSTYLEASSIGNMENT((#150));
#152=IFCSTYLEDITEM(#140,(#151),$);
#153=IFCWALL('0mgZ0sfdXAZRUWwUO4qOs0',$,'Shared Bath East Boundary Wall',$,$,#170,#165,$,$);
#154=IFCCARTESIANPOINT((0.,0.));
#155=IFCCARTESIANPOINT((0.11,0.));
#156=IFCCARTESIANPOINT((0.11,2.3999999999999999));
#157=IFCCARTESIANPOINT((0.,2.3999999999999999));
#158=IFCPOLYLINE((#154,#155,#156,#157,#154));
#159=IFCARBITRARYCLOSEDPROFILEDEF(.AREA.,$,#158);
#160=IFCDIRECTION((0.,0.,1.));
#161=IFCCARTESIANPOINT((0.,0.,0.));
#162=IFCAXIS2PLACEMENT3D(#161,$,$);
#163=IFCEXTRUDEDAREASOLID(#159,#162,#160,3.);
#164=IFCSHAPEREPRESENTATION(#7,'Body','SweptSolid',(#163));
#165=IFCPRODUCTDEFINITIONSHAPE($,$,(#164));
#166=IFCCARTESIANPOINT((6.5999999999999996,12.369999999999999,0.));
#167=IFCDIRECTION((0.,0.,1.));
#168=IFCDIRECTION((1.,0.,0.));
#169=IFCAXIS2PLACEMENT3D(#166,#167,#168);
#170=IFCLOCALPLACEMENT($,#169);
#171=IFCCOLOURRGB('SurfaceColor',0.94999999999999996,0.93000000000000005,0.88);
#172=IFCSURFACESTYLESHADING(#171,0.);
#173=IFCSURFACESTYLE('MaterialStyle',.BOTH.,(#172));
#174=IFCPRESENTATIONSTYLEASSIGNMENT((#173));
#175=IFCSTYLEDITEM(#163,(#174),$);
#176=IFCWALL('17llauV_nDj949LBke2cr$',$,'Shared Bath South Entry Partition',$,$,#193,#188,$,$);
#177=IFCCARTESIANPOINT((0.,0.));
#178=IFCCARTESIANPOINT((2.3100000000000001,0.));
#179=IFCCARTESIANPOINT((2.3100000000000001,0.11));
#180=IFCCARTESIANPOINT((0.,0.11));
#181=IFCPOLYLINE((#177,#178,#179,#180,#177));
#182=IFCARBITRARYCLOSEDPROFILEDEF(.AREA.,$,#181);
#183=IFCDIRECTION((0.,0.,1.));
#184=IFCCARTESIANPOINT((0.,0.,0.));
#185=IFCAXIS2PLACEMENT3D(#184,$,$);
#186=IFCEXTRUDEDAREASOLID(#182,#185,#183,3.);
#187=IFCSHAPEREPRESENTATION(#7,'Body','SweptSolid',(#186));
#188=IFCPRODUCTDEFINITIONSHAPE($,$,(#187));
#189=IFCCARTESIANPOINT((4.4000000000000004,12.369999999999999,0.));
#190=IFCDIRECTION((0.,0.,1.));
#191=IFCDIRECTION((1.,0.,0.));
#192=IFCAXIS2PLACEMENT3D(#189,#190,#191);
#193=IFCLOCALPLACEMENT($,#192);
#194=IFCCOLOURRGB('SurfaceColor',0.94999999999999996,0.93000000000000005,0.88);
#195=IFCSURFACESTYLESHADING(#194,0.);
#196=IFCSURFACESTYLE('MaterialStyle',.BOTH.,(#195));
#197=IFCPRESENTATIONSTYLEASSIGNMENT((#196));
#198=IFCSTYLEDITEM(#186,(#197),$);
#199=IFCWALL('25RJjW$u564BSkrMEb22$F',$,'Bedroom 2 and 3 Partition Wall',$,$,#216,#211,$,$);
#200=IFCCARTESIANPOINT((0.,0.));
#201=IFCCARTESIANPOINT((0.11,0.));
#202=IFCCARTESIANPOINT((0.11,3.1000000000000001));
#203=IFCCARTESIANPOINT((0.,3.1000000000000001));
#204=IFCPOLYLINE((#200,#201,#202,#203,#200));
#205=IFCARBITRARYCLOSEDPROFILEDEF(.AREA.,$,#204);
#206=IFCDIRECTION((0.,0.,1.));
#207=IFCCARTESIANPOINT((0.,0.,0.));
#208=IFCAXIS2PLACEMENT3D(#207,$,$);
#209=IFCEXTRUDEDAREASOLID(#205,#208,#206,3.);
#210=IFCSHAPEREPRESENTATION(#7,'Body','SweptSolid',(#209));
#211=IFCPRODUCTDEFINITIONSHAPE($,$,(#210));
#212=IFCCARTESIANPOINT((5.5,9.2699999999999996,0.));
#213=IFCDIRECTION((0.,0.,1.));
#214=IFCDIRECTION((1.,0.,0.));
#215=IFCAXIS2PLACEMENT3D(#212,#213,#214);
#216=IFCLOCALPLACEMENT($,#215);
#217=IFCCOLOURRGB('SurfaceColor',0.94999999999999996,0.93000000000000005,0.88);
#218=IFCSURFACESTYLESHADING(#217,0.);
#219=IFCSURFACESTYLE('MaterialStyle',.BOTH.,(#218));
#220=IFCPRESENTATIONSTYLEASSIGNMENT((#219));
#221=IFCSTYLEDITEM(#209,(#220),$);
#222=IFCWALL('0McPDZOl1A7ehO4UPX6p9R',$,'Kitchen West Separation Partition',$,$,#239,#234,$,$);
#223=IFCCARTESIANPOINT((0.,0.));
#224=IFCCARTESIANPOINT((0.11,0.));
#225=IFCCARTESIANPOINT((0.11,4.5));
#226=IFCCARTESIANPOINT((0.,4.5));
#227=IFCPOLYLINE((#223,#224,#225,#226,#223));
#228=IFCARBITRARYCLOSEDPROFILEDEF(.AREA.,$,#227);
#229=IFCDIRECTION((0.,0.,1.));
#230=IFCCARTESIANPOINT((0.,0.,0.));
#231=IFCAXIS2PLACEMENT3D(#230,$,$);
#232=IFCEXTRUDEDAREASOLID(#228,#231,#229,3.);
#233=IFCSHAPEREPRESENTATION(#7,'Body','SweptSolid',(#232));
#234=IFCPRODUCTDEFINITIONSHAPE($,$,(#233));
#235=IFCCARTESIANPOINT((8.5,0.23000000000000001,0.));
#236=IFCDIRECTION((0.,0.,1.));
#237=IFCDIRECTION((1.,0.,0.));
#238=IFCAXIS2PLACEMENT3D(#235,#236,#237);
#239=IFCLOCALPLACEMENT($,#238);
#240=IFCCOLOURRGB('SurfaceColor',0.94999999999999996,0.93000000000000005,0.88);
#241=IFCSURFACESTYLESHADING(#240,0.);
#242=IFCSURFACESTYLE('MaterialStyle',.BOTH.,(#241));
#243=IFCPRESENTATIONSTYLEASSIGNMENT((#242));
#244=IFCSTYLEDITEM(#232,(#243),$);
#245=IFCWALL('38Wvku3TzDRujlQDFnv02e',$,'Kitchen North Main Partition',$,$,#262,#257,$,$);
#246=IFCCARTESIANPOINT((0.,0.));
#247=IFCCARTESIANPOINT((3.77,0.));
#248=IFCCARTESIANPOINT((3.77,0.11));
#249=IFCCARTESIANPOINT((0.,0.11));
#250=IFCPOLYLINE((#246,#247,#248,#249,#246));
#251=IFCARBITRARYCLOSEDPROFILEDEF(.AREA.,$,#250);
#252=IFCDIRECTION((0.,0.,1.));
#253=IFCCARTESIANPOINT((0.,0.,0.));
#254=IFCAXIS2PLACEMENT3D(#253,$,$);
#255=IFCEXTRUDEDAREASOLID(#251,#254,#252,3.);
#256=IFCSHAPEREPRESENTATION(#7,'Body','SweptSolid',(#255));
#257=IFCPRODUCTDEFINITIONSHAPE($,$,(#256));
#258=IFCCARTESIANPOINT((8.5,4.7300000000000004,0.));
#259=IFCDIRECTION((0.,0.,1.));
#260=IFCDIRECTION((1.,0.,0.));
#261=IFCAXIS2PLACEMENT3D(#258,#259,#260);
#262=IFCLOCALPLACEMENT($,#261);
#263=IFCCOLOURRGB('SurfaceColor',0.94999999999999996,0.93000000000000005,0.88);
#264=IFCSURFACESTYLESHADING(#263,0.);
#265=IFCSURFACESTYLE('MaterialStyle',.BOTH.,(#264));
#266=IFCPRESENTATIONSTYLEASSIGNMENT((#265));
#267=IFCSTYLEDITEM(#255,(#266),$);
#268=IFCWALL('025ov6rED61g8BmYCi68Ot',$,'Master Suite North Room Partition',$,$,#285,#280,$,$);
#269=IFCCARTESIANPOINT((0.,0.));
#270=IFCCARTESIANPOINT((5.,0.));
#271=IFCCARTESIANPOINT((5.,0.11));
#272=IFCCARTESIANPOINT((0.,0.11));
#273=IFCPOLYLINE((#269,#270,#271,#272,#269));
#274=IFCARBITRARYCLOSEDPROFILEDEF(.AREA.,$,#273);
#275=IFCDIRECTION((0.,0.,1.));
#276=IFCCARTESIANPOINT((0.,0.,0.));
#277=IFCAXIS2PLACEMENT3D(#276,$,$);
#278=IFCEXTRUDEDAREASOLID(#274,#277,#275,3.);
#279=IFCSHAPEREPRESENTATION(#7,'Body','SweptSolid',(#278));
#280=IFCPRODUCTDEFINITIONSHAPE($,$,(#279));
#281=IFCCARTESIANPOINT((0.23000000000000001,5.5,0.));
#282=IFCDIRECTION((0.,0.,1.));
#283=IFCDIRECTION((1.,0.,0.));
#284=IFCAXIS2PLACEMENT3D(#281,#282,#283);
#285=IFCLOCALPLACEMENT($,#284);
#286=IFCCOLOURRGB('SurfaceColor',0.94999999999999996,0.93000000000000005,0.88);
#287=IFCSURFACESTYLESHADING(#286,0.);
#288=IFCSURFACESTYLE('MaterialStyle',.BOTH.,(#287));
#289=IFCPRESENTATIONSTYLEASSIGNMENT((#288));
#290=IFCSTYLEDITEM(#278,(#289),$);
#291=IFCWALL('1A9Tx0crr2Cw$LGHYVhF0C',$,'Master Suite East Corridor Partition',$,$,#308,#303,$,$);
#292=IFCCARTESIANPOINT((0.,0.));
#293=IFCCARTESIANPOINT((0.11,0.));
#294=IFCCARTESIANPOINT((0.11,5.2699999999999996));
#295=IFCCARTESIANPOINT((0.,5.2699999999999996));
#296=IFCPOLYLINE((#292,#293,#294,#295,#292));
#297=IFCARBITRARYCLOSEDPROFILEDEF(.AREA.,$,#296);
#298=IFCDIRECTION((0.,0.,1.));
#299=IFCCARTESIANPOINT((0.,0.,0.));
#300=IFCAXIS2PLACEMENT3D(#299,$,$);
#301=IFCEXTRUDEDAREASOLID(#297,#300,#298,3.);
#302=IFCSHAPEREPRESENTATION(#7,'Body','SweptSolid',(#301));
#303=IFCPRODUCTDEFINITIONSHAPE($,$,(#302));
#304=IFCCARTESIANPOINT((5.2300000000000004,0.23000000000000001,0.));
#305=IFCDIRECTION((0.,0.,1.));
#306=IFCDIRECTION((1.,0.,0.));
#307=IFCAXIS2PLACEMENT3D(#304,#305,#306);
#308=IFCLOCALPLACEMENT($,#307);
#309=IFCCOLOURRGB('SurfaceColor',0.94999999999999996,0.93000000000000005,0.88);
#310=IFCSURFACESTYLESHADING(#309,0.);
#311=IFCSURFACESTYLE('MaterialStyle',.BOTH.,(#310));
#312=IFCPRESENTATIONSTYLEASSIGNMENT((#311));
#313=IFCSTYLEDITEM(#301,(#312),$);
#314=IFCWALL('2wpJ83o5vDhAjQmwzey2E_',$,'Master En-suite Bathroom North Wall',$,$,#331,#326,$,$);
#315=IFCCARTESIANPOINT((0.,0.));
#316=IFCCARTESIANPOINT((2.2000000000000002,0.));
#317=IFCCARTESIANPOINT((2.2000000000000002,0.11));
#318=IFCCARTESIANPOINT((0.,0.11));
#319=IFCPOLYLINE((#315,#316,#317,#318,#315));
#320=IFCARBITRARYCLOSEDPROFILEDEF(.AREA.,$,#319);
#321=IFCDIRECTION((0.,0.,1.));
#322=IFCCARTESIANPOINT((0.,0.,0.));
#323=IFCAXIS2PLACEMENT3D(#322,$,$);
#324=IFCEXTRUDEDAREASOLID(#320,#323,#321,3.);
#325=IFCSHAPEREPRESENTATION(#7,'Body','SweptSolid',(#324));
#326=IFCPRODUCTDEFINITIONSHAPE($,$,(#325));
#327=IFCCARTESIANPOINT((3.0299999999999998,3.,0.));
#328=IFCDIRECTION((0.,0.,1.));
#329=IFCDIRECTION((1.,0.,0.));
#330=IFCAXIS2PLACEMENT3D(#327,#328,#329);
#331=IFCLOCALPLACEMENT($,#330);
#332=IFCCOLOURRGB('SurfaceColor',0.94999999999999996,0.93000000000000005,0.88);
#333=IFCSURFACESTYLESHADING(#332,0.);
#334=IFCSURFACESTYLE('MaterialStyle',.BOTH.,(#333));
#335=IFCPRESENTATIONSTYLEASSIGNMENT((#334));
#336=IFCSTYLEDITEM(#324,(#335),$);
#337=IFCWALL('1VofgiuJ9B2uKmjsrqDdLH',$,'Master En-suite Bathroom West Wall',$,$,#354,#349,$,$);
#338=IFCCARTESIANPOINT((0.,0.));
#339=IFCCARTESIANPOINT((0.11,0.));
#340=IFCCARTESIANPOINT((0.11,2.77));
#341=IFCCARTESIANPOINT((0.,2.77));
#342=IFCPOLYLINE((#338,#339,#340,#341,#338));
#343=IFCARBITRARYCLOSEDPROFILEDEF(.AREA.,$,#342);
#344=IFCDIRECTION((0.,0.,1.));
#345=IFCCARTESIANPOINT((0.,0.,0.));
#346=IFCAXIS2PLACEMENT3D(#345,$,$);
#347=IFCEXTRUDEDAREASOLID(#343,#346,#344,3.);
#348=IFCSHAPEREPRESENTATION(#7,'Body','SweptSolid',(#347));
#349=IFCPRODUCTDEFINITIONSHAPE($,$,(#348));
#350=IFCCARTESIANPOINT((3.0299999999999998,0.23000000000000001,0.));
#351=IFCDIRECTION((0.,0.,1.));
#352=IFCDIRECTION((1.,0.,0.));
#353=IFCAXIS2PLACEMENT3D(#350,#351,#352);
#354=IFCLOCALPLACEMENT($,#353);
#355=IFCCOLOURRGB('SurfaceColor',0.94999999999999996,0.93000000000000005,0.88);
#356=IFCSURFACESTYLESHADING(#355,0.);
#357=IFCSURFACESTYLE('MaterialStyle',.BOTH.,(#356));
#358=IFCPRESENTATIONSTYLEASSIGNMENT((#357));
#359=IFCSTYLEDITEM(#347,(#358),$);
#360=IFCWALL('30Bp4wUvXC$AFq6beCtJ_T',$,'Bedrooms Southern Hallway Base',$,$,#377,#372,$,$);
#361=IFCCARTESIANPOINT((0.,0.));
#362=IFCCARTESIANPOINT((12.039999999999999,0.));
#363=IFCCARTESIANPOINT((12.039999999999999,0.11));
#364=IFCCARTESIANPOINT((0.,0.11));
#365=IFCPOLYLINE((#361,#362,#363,#364,#361));
#366=IFCARBITRARYCLOSEDPROFILEDEF(.AREA.,$,#365);
#367=IFCDIRECTION((0.,0.,1.));
#368=IFCCARTESIANPOINT((0.,0.,0.));
#369=IFCAXIS2PLACEMENT3D(#368,$,$);
#370=IFCEXTRUDEDAREASOLID(#366,#369,#367,3.);
#371=IFCSHAPEREPRESENTATION(#7,'Body','SweptSolid',(#370));
#372=IFCPRODUCTDEFINITIONSHAPE($,$,(#371));
#373=IFCCARTESIANPOINT((0.23000000000000001,9.2699999999999996,0.));
#374=IFCDIRECTION((0.,0.,1.));
#375=IFCDIRECTION((1.,0.,0.));
#376=IFCAXIS2PLACEMENT3D(#373,#374,#375);
#377=IFCLOCALPLACEMENT($,#376);
#378=IFCCOLOURRGB('SurfaceColor',0.94999999999999996,0.93000000000000005,0.88);
#379=IFCSURFACESTYLESHADING(#378,0.);
#380=IFCSURFACESTYLE('MaterialStyle',.BOTH.,(#379));
#381=IFCPRESENTATIONSTYLEASSIGNMENT((#380));
#382=IFCSTYLEDITEM(#370,(#381),$);
#383=IFCWALL('2iigQi0WnEmO9v1EcPxtxI',$,'Common Area Bath West Wall',$,$,#400,#395,$,$);
#384=IFCCARTESIANPOINT((0.,0.));
#385=IFCCARTESIANPOINT((0.11,0.));
#386=IFCCARTESIANPOINT((0.11,2.5));
#387=IFCCARTESIANPOINT((0.,2.5));
#388=IFCPOLYLINE((#384,#385,#386,#387,#384));
#389=IFCARBITRARYCLOSEDPROFILEDEF(.AREA.,$,#388);
#390=IFCDIRECTION((0.,0.,1.));
#391=IFCCARTESIANPOINT((0.,0.,0.));
#392=IFCAXIS2PLACEMENT3D(#391,$,$);
#393=IFCEXTRUDEDAREASOLID(#389,#392,#390,3.);
#394=IFCSHAPEREPRESENTATION(#7,'Body','SweptSolid',(#393));
#395=IFCPRODUCTDEFINITIONSHAPE($,$,(#394));
#396=IFCCARTESIANPOINT((10.369999999999999,6.7699999999999996,0.));
#397=IFCDIRECTION((0.,0.,1.));
#398=IFCDIRECTION((1.,0.,0.));
#399=IFCAXIS2PLACEMENT3D(#396,#397,#398);
#400=IFCLOCALPLACEMENT($,#399);
#401=IFCCOLOURRGB('SurfaceColor',0.94999999999999996,0.93000000000000005,0.88);
#402=IFCSURFACESTYLESHADING(#401,0.);
#403=IFCSURFACESTYLE('MaterialStyle',.BOTH.,(#402));
#404=IFCPRESENTATIONSTYLEASSIGNMENT((#403));
#405=IFCSTYLEDITEM(#393,(#404),$);
#406=IFCWALL('1RoXReVM57$ASjjPETvM3m',$,'Common Area Bath South Wall',$,$,#423,#418,$,$);
#407=IFCCARTESIANPOINT((0.,0.));
#408=IFCCARTESIANPOINT((1.8999999999999999,0.));
#409=IFCCARTESIANPOINT((1.8999999999999999,0.11));
#410=IFCCARTESIANPOINT((0.,0.11));
#411=IFCPOLYLINE((#407,#408,#409,#410,#407));
#412=IFCARBITRARYCLOSEDPROFILEDEF(.AREA.,$,#411);
#413=IFCDIRECTION((0.,0.,1.));
#414=IFCCARTESIANPOINT((0.,0.,0.));
#415=IFCAXIS2PLACEMENT3D(#414,$,$);
#416=IFCEXTRUDEDAREASOLID(#412,#415,#413,3.);
#417=IFCSHAPEREPRESENTATION(#7,'Body','SweptSolid',(#416));
#418=IFCPRODUCTDEFINITIONSHAPE($,$,(#417));
#419=IFCCARTESIANPOINT((10.369999999999999,6.7699999999999996,0.));
#420=IFCDIRECTION((0.,0.,1.));
#421=IFCDIRECTION((1.,0.,0.));
#422=IFCAXIS2PLACEMENT3D(#419,#420,#421);
#423=IFCLOCALPLACEMENT($,#422);
#424=IFCCOLOURRGB('SurfaceColor',0.94999999999999996,0.93000000000000005,0.88);
#425=IFCSURFACESTYLESHADING(#424,0.);
#426=IFCSURFACESTYLE('MaterialStyle',.BOTH.,(#425));
#427=IFCPRESENTATIONSTYLEASSIGNMENT((#426));
#428=IFCSTYLEDITEM(#416,(#427),$);
#429=IFCOPENINGELEMENT($,$,'Void for Bedroom 2 Northern Window',$,$,#446,#441,$,$);
#430=IFCCARTESIANPOINT((0.,0.));
#431=IFCCARTESIANPOINT((1.5,0.));
#432=IFCCARTESIANPOINT((1.5,0.23000000000000001));
#433=IFCCARTESIANPOINT((0.,0.23000000000000001));
#434=IFCPOLYLINE((#430,#431,#432,#433,#430));
#435=IFCARBITRARYCLOSEDPROFILEDEF(.AREA.,$,#434);
#436=IFCDIRECTION((0.,0.,1.));
#437=IFCCARTESIANPOINT((0.,0.,0.));
#438=IFCAXIS2PLACEMENT3D(#437,$,$);
#439=IFCEXTRUDEDAREASOLID(#435,#438,#436,1.2);
#440=IFCSHAPEREPRESENTATION(#7,'Body','SweptSolid',(#439));
#441=IFCPRODUCTDEFINITIONSHAPE($,$,(#440));
#442=IFCCARTESIANPOINT((1.5,14.77,1.));
#443=IFCDIRECTION((0.,0.,1.));
#444=IFCDIRECTION((1.,0.,0.));
#445=IFCAXIS2PLACEMENT3D(#442,#443,#444);
#446=IFCLOCALPLACEMENT($,#445);
#447=IFCRELVOIDSELEMENT($,$,$,$,#61,#429);
#448=IFCWINDOW('0$_BecTOzBQPEvcusJ2bzm',$,'Bedroom 2 Northern Window',$,$,#465,#460,$,$,$,$,$,$);
#449=IFCCARTESIANPOINT((0.,0.));
#450=IFCCARTESIANPOINT((1.5,0.));
#451=IFCCARTESIANPOINT((1.5,0.23000000000000001));
#452=IFCCARTESIANPOINT((0.,0.23000000000000001));
#453=IFCPOLYLINE((#449,#450,#451,#452,#449));
#454=IFCARBITRARYCLOSEDPROFILEDEF(.AREA.,$,#453);
#455=IFCDIRECTION((0.,0.,1.));
#456=IFCCARTESIANPOINT((0.,0.,0.));
#457=IFCAXIS2PLACEMENT3D(#456,$,$);
#458=IFCEXTRUDEDAREASOLID(#454,#457,#455,1.2);
#459=IFCSHAPEREPRESENTATION(#7,'Body','SweptSolid',(#458));
#460=IFCPRODUCTDEFINITIONSHAPE($,$,(#459));
#461=IFCCARTESIANPOINT((1.5,14.77,1.));
#462=IFCDIRECTION((0.,0.,1.));
#463=IFCDIRECTION((1.,0.,0.));
#464=IFCAXIS2PLACEMENT3D(#461,#462,#463);
#465=IFCLOCALPLACEMENT($,#464);
#466=IFCCOLOURRGB('SurfaceColor',0.69999999999999996,0.90000000000000002,1.);
#467=IFCSURFACESTYLESHADING(#466,0.5);
#468=IFCSURFACESTYLE('MaterialStyle',.BOTH.,(#467));
#469=IFCPRESENTATIONSTYLEASSIGNMENT((#468));
#470=IFCSTYLEDITEM(#458,(#469),$);
#471=IFCRELFILLSELEMENT($,$,$,$,#429,#448);
#472=IFCOPENINGELEMENT($,$,'Void for Shared Bath Frosted Vent Window',$,$,#489,#484,$,$);
#473=IFCCARTESIANPOINT((0.,0.));
#474=IFCCARTESIANPOINT((0.59999999999999998,0.));
#475=IFCCARTESIANPOINT((0.59999999999999998,0.23000000000000001));
#476=IFCCARTESIANPOINT((0.,0.23000000000000001));
#477=IFCPOLYLINE((#473,#474,#475,#476,#473));
#478=IFCARBITRARYCLOSEDPROFILEDEF(.AREA.,$,#477);
#479=IFCDIRECTION((0.,0.,1.));
#480=IFCCARTESIANPOINT((0.,0.,0.));
#481=IFCAXIS2PLACEMENT3D(#480,$,$);
#482=IFCEXTRUDEDAREASOLID(#478,#481,#479,0.59999999999999998);
#483=IFCSHAPEREPRESENTATION(#7,'Body','SweptSolid',(#482));
#484=IFCPRODUCTDEFINITIONSHAPE($,$,(#483));
#485=IFCCARTESIANPOINT((5.2000000000000002,14.77,1.8));
#486=IFCDIRECTION((0.,0.,1.));
#487=IFCDIRECTION((1.,0.,0.));
#488=IFCAXIS2PLACEMENT3D(#485,#486,#487);
#489=IFCLOCALPLACEMENT($,#488);
#490=IFCRELVOIDSELEMENT($,$,$,$,#61,#472);
#491=IFCWINDOW('0uQnJDAVf2w8rCuAIv$wDQ',$,'Shared Bath Frosted Vent Window',$,$,#508,#503,$,$,$,$,$,$);
#492=IFCCARTESIANPOINT((0.,0.));
#493=IFCCARTESIANPOINT((0.59999999999999998,0.));
#494=IFCCARTESIANPOINT((0.59999999999999998,0.23000000000000001));
#495=IFCCARTESIANPOINT((0.,0.23000000000000001));
#496=IFCPOLYLINE((#492,#493,#494,#495,#492));
#497=IFCARBITRARYCLOSEDPROFILEDEF(.AREA.,$,#496);
#498=IFCDIRECTION((0.,0.,1.));
#499=IFCCARTESIANPOINT((0.,0.,0.));
#500=IFCAXIS2PLACEMENT3D(#499,$,$);
#501=IFCEXTRUDEDAREASOLID(#497,#500,#498,0.59999999999999998);
#502=IFCSHAPEREPRESENTATION(#7,'Body','SweptSolid',(#501));
#503=IFCPRODUCTDEFINITIONSHAPE($,$,(#502));
#504=IFCCARTESIANPOINT((5.2000000000000002,14.77,1.8));
#505=IFCDIRECTION((0.,0.,1.));
#506=IFCDIRECTION((1.,0.,0.));
#507=IFCAXIS2PLACEMENT3D(#504,#505,#506);
#508=IFCLOCALPLACEMENT($,#507);
#509=IFCCOLOURRGB('SurfaceColor',0.69999999999999996,0.90000000000000002,1.);
#510=IFCSURFACESTYLESHADING(#509,0.5);
#511=IFCSURFACESTYLE('MaterialStyle',.BOTH.,(#510));
#512=IFCPRESENTATIONSTYLEASSIGNMENT((#511));
#513=IFCSTYLEDITEM(#501,(#512),$);
#514=IFCRELFILLSELEMENT($,$,$,$,#472,#491);
#515=IFCOPENINGELEMENT($,$,'Void for Bedroom 3 Northern Window',$,$,#532,#527,$,$);
#516=IFCCARTESIANPOINT((0.,0.));
#517=IFCCARTESIANPOINT((1.5,0.));
#518=IFCCARTESIANPOINT((1.5,0.23000000000000001));
#519=IFCCARTESIANPOINT((0.,0.23000000000000001));
#520=IFCPOLYLINE((#516,#517,#518,#519,#516));
#521=IFCARBITRARYCLOSEDPROFILEDEF(.AREA.,$,#520);
#522=IFCDIRECTION((0.,0.,1.));
#523=IFCCARTESIANPOINT((0.,0.,0.));
#524=IFCAXIS2PLACEMENT3D(#523,$,$);
#525=IFCEXTRUDEDAREASOLID(#521,#524,#522,1.2);
#526=IFCSHAPEREPRESENTATION(#7,'Body','SweptSolid',(#525));
#527=IFCPRODUCTDEFINITIONSHAPE($,$,(#526));
#528=IFCCARTESIANPOINT((9.5,14.77,1.));
#529=IFCDIRECTION((0.,0.,1.));
#530=IFCDIRECTION((1.,0.,0.));
#531=IFCAXIS2PLACEMENT3D(#528,#529,#530);
#532=IFCLOCALPLACEMENT($,#531);
#533=IFCRELVOIDSELEMENT($,$,$,$,#61,#515);
#534=IFCWINDOW('2gYbXyewX0iO30xsiCACZ6',$,'Bedroom 3 Northern Window',$,$,#551,#546,$,$,$,$,$,$);
#535=IFCCARTESIANPOINT((0.,0.));
#536=IFCCARTESIANPOINT((1.5,0.));
#537=IFCCARTESIANPOINT((1.5,0.23000000000000001));
#538=IFCCARTESIANPOINT((0.,0.23000000000000001));
#539=IFCPOLYLINE((#535,#536,#537,#538,#535));
#540=IFCARBITRARYCLOSEDPROFILEDEF(.AREA.,$,#539);
#541=IFCDIRECTION((0.,0.,1.));
#542=IFCCARTESIANPOINT((0.,0.,0.));
#543=IFCAXIS2PLACEMENT3D(#542,$,$);
#544=IFCEXTRUDEDAREASOLID(#540,#543,#541,1.2);
#545=IFCSHAPEREPRESENTATION(#7,'Body','SweptSolid',(#544));
#546=IFCPRODUCTDEFINITIONSHAPE($,$,(#545));
#547=IFCCARTESIANPOINT((9.5,14.77,1.));
#548=IFCDIRECTION((0.,0.,1.));
#549=IFCDIRECTION((1.,0.,0.));
#550=IFCAXIS2PLACEMENT3D(#547,#548,#549);
#551=IFCLOCALPLACEMENT($,#550);
#552=IFCCOLOURRGB('SurfaceColor',0.69999999999999996,0.90000000000000002,1.);
#553=IFCSURFACESTYLESHADING(#552,0.5);
#554=IFCSURFACESTYLE('MaterialStyle',.BOTH.,(#553));
#555=IFCPRESENTATIONSTYLEASSIGNMENT((#554));
#556=IFCSTYLEDITEM(#544,(#555),$);
#557=IFCRELFILLSELEMENT($,$,$,$,#515,#534);
#558=IFCOPENINGELEMENT($,$,'Void for Master Suite Southern Window',$,$,#575,#570,$,$);
#559=IFCCARTESIANPOINT((0.,0.));
#560=IFCCARTESIANPOINT((1.8,0.));
#561=IFCCARTESIANPOINT((1.8,0.23000000000000001));
#562=IFCCARTESIANPOINT((0.,0.23000000000000001));
#563=IFCPOLYLINE((#559,#560,#561,#562,#559));
#564=IFCARBITRARYCLOSEDPROFILEDEF(.AREA.,$,#563);
#565=IFCDIRECTION((0.,0.,1.));
#566=IFCCARTESIANPOINT((0.,0.,0.));
#567=IFCAXIS2PLACEMENT3D(#566,$,$);
#568=IFCEXTRUDEDAREASOLID(#564,#567,#565,1.2);
#569=IFCSHAPEREPRESENTATION(#7,'Body','SweptSolid',(#568));
#570=IFCPRODUCTDEFINITIONSHAPE($,$,(#569));
#571=IFCCARTESIANPOINT((1.,0.,1.));
#572=IFCDIRECTION((0.,0.,1.));
#573=IFCDIRECTION((1.,0.,0.));
#574=IFCAXIS2PLACEMENT3D(#571,#572,#573);
#575=IFCLOCALPLACEMENT($,#574);
#576=IFCRELVOIDSELEMENT($,$,$,$,#38,#558);
#577=IFCWINDOW('0jAx1UXfr3oAZu$8sBadyT',$,'Master Suite Southern Window',$,$,#594,#589,$,$,$,$,$,$);
#578=IFCCARTESIANPOINT((0.,0.));
#579=IFCCARTESIANPOINT((1.8,0.));
#580=IFCCARTESIANPOINT((1.8,0.23000000000000001));
#581=IFCCARTESIANPOINT((0.,0.23000000000000001));
#582=IFCPOLYLINE((#578,#579,#580,#581,#578));
#583=IFCARBITRARYCLOSEDPROFILEDEF(.AREA.,$,#582);
#584=IFCDIRECTION((0.,0.,1.));
#585=IFCCARTESIANPOINT((0.,0.,0.));
#586=IFCAXIS2PLACEMENT3D(#585,$,$);
#587=IFCEXTRUDEDAREASOLID(#583,#586,#584,1.2);
#588=IFCSHAPEREPRESENTATION(#7,'Body','SweptSolid',(#587));
#589=IFCPRODUCTDEFINITIONSHAPE($,$,(#588));
#590=IFCCARTESIANPOINT((1.,0.,1.));
#591=IFCDIRECTION((0.,0.,1.));
#592=IFCDIRECTION((1.,0.,0.));
#593=IFCAXIS2PLACEMENT3D(#590,#591,#592);
#594=IFCLOCALPLACEMENT($,#593);
#595=IFCCOLOURRGB('SurfaceColor',0.69999999999999996,0.90000000000000002,1.);
#596=IFCSURFACESTYLESHADING(#595,0.5);
#597=IFCSURFACESTYLE('MaterialStyle',.BOTH.,(#596));
#598=IFCPRESENTATIONSTYLEASSIGNMENT((#597));
#599=IFCSTYLEDITEM(#587,(#598),$);
#600=IFCRELFILLSELEMENT($,$,$,$,#558,#577);
#601=IFCOPENINGELEMENT($,$,'Void for Kitchen Ventilation Window Slider',$,$,#618,#613,$,$);
#602=IFCCARTESIANPOINT((0.,0.));
#603=IFCCARTESIANPOINT((1.2,0.));
#604=IFCCARTESIANPOINT((1.2,0.23000000000000001));
#605=IFCCARTESIANPOINT((0.,0.23000000000000001));
#606=IFCPOLYLINE((#602,#603,#604,#605,#602));
#607=IFCARBITRARYCLOSEDPROFILEDEF(.AREA.,$,#606);
#608=IFCDIRECTION((0.,0.,1.));
#609=IFCCARTESIANPOINT((0.,0.,0.));
#610=IFCAXIS2PLACEMENT3D(#609,$,$);
#611=IFCEXTRUDEDAREASOLID(#607,#610,#608,1.);
#612=IFCSHAPEREPRESENTATION(#7,'Body','SweptSolid',(#611));
#613=IFCPRODUCTDEFINITIONSHAPE($,$,(#612));
#614=IFCCARTESIANPOINT((12.27,2.,1.2));
#615=IFCDIRECTION((0.,0.,1.));
#616=IFCDIRECTION((1.,0.,0.));
#617=IFCAXIS2PLACEMENT3D(#614,#615,#616);
#618=IFCLOCALPLACEMENT($,#617);
#619=IFCRELVOIDSELEMENT($,$,$,$,#107,#601);
#620=IFCWINDOW('1e8lM0nJr5pBspZ1RAHm2Y',$,'Kitchen Ventilation Window Slider',$,$,#637,#632,$,$,$,$,$,$);
#621=IFCCARTESIANPOINT((0.,0.));
#622=IFCCARTESIANPOINT((1.2,0.));
#623=IFCCARTESIANPOINT((1.2,0.23000000000000001));
#624=IFCCARTESIANPOINT((0.,0.23000000000000001));
#625=IFCPOLYLINE((#621,#622,#623,#624,#621));
#626=IFCARBITRARYCLOSEDPROFILEDEF(.AREA.,$,#625);
#627=IFCDIRECTION((0.,0.,1.));
#628=IFCCARTESIANPOINT((0.,0.,0.));
#629=IFCAXIS2PLACEMENT3D(#628,$,$);
#630=IFCEXTRUDEDAREASOLID(#626,#629,#627,1.);
#631=IFCSHAPEREPRESENTATION(#7,'Body','SweptSolid',(#630));
#632=IFCPRODUCTDEFINITIONSHAPE($,$,(#631));
#633=IFCCARTESIANPOINT((12.27,2.,1.2));
#634=IFCDIRECTION((0.,0.,1.));
#635=IFCDIRECTION((1.,0.,0.));
#636=IFCAXIS2PLACEMENT3D(#633,#634,#635);
#637=IFCLOCALPLACEMENT($,#636);
#638=IFCCOLOURRGB('SurfaceColor',0.69999999999999996,0.90000000000000002,1.);
#639=IFCSURFACESTYLESHADING(#638,0.5);
#640=IFCSURFACESTYLE('MaterialStyle',.BOTH.,(#639));
#641=IFCPRESENTATIONSTYLEASSIGNMENT((#640));
#642=IFCSTYLEDITEM(#630,(#641),$);
#643=IFCRELFILLSELEMENT($,$,$,$,#601,#620);
#644=IFCOPENINGELEMENT($,$,'Void for Common Bath East Vent Window',$,$,#661,#656,$,$);
#645=IFCCARTESIANPOINT((0.,0.));
#646=IFCCARTESIANPOINT((0.59999999999999998,0.));
#647=IFCCARTESIANPOINT((0.59999999999999998,0.23000000000000001));
#648=IFCCARTESIANPOINT((0.,0.23000000000000001));
#649=IFCPOLYLINE((#645,#646,#647,#648,#645));
#650=IFCARBITRARYCLOSEDPROFILEDEF(.AREA.,$,#649);
#651=IFCDIRECTION((0.,0.,1.));
#652=IFCCARTESIANPOINT((0.,0.,0.));
#653=IFCAXIS2PLACEMENT3D(#652,$,$);
#654=IFCEXTRUDEDAREASOLID(#650,#653,#651,0.59999999999999998);
#655=IFCSHAPEREPRESENTATION(#7,'Body','SweptSolid',(#654));
#656=IFCPRODUCTDEFINITIONSHAPE($,$,(#655));
#657=IFCCARTESIANPOINT((12.27,8.,1.8));
#658=IFCDIRECTION((0.,0.,1.));
#659=IFCDIRECTION((1.,0.,0.));
#660=IFCAXIS2PLACEMENT3D(#657,#658,#659);
#661=IFCLOCALPLACEMENT($,#660);
#662=IFCRELVOIDSELEMENT($,$,$,$,#107,#644);
#663=IFCWINDOW('0L6IK4YU16ZvyJgUYKwhzJ',$,'Common Bath East Vent Window',$,$,#680,#675,$,$,$,$,$,$);
#664=IFCCARTESIANPOINT((0.,0.));
#665=IFCCARTESIANPOINT((0.59999999999999998,0.));
#666=IFCCARTESIANPOINT((0.59999999999999998,0.23000000000000001));
#667=IFCCARTESIANPOINT((0.,0.23000000000000001));
#668=IFCPOLYLINE((#664,#665,#666,#667,#664));
#669=IFCARBITRARYCLOSEDPROFILEDEF(.AREA.,$,#668);
#670=IFCDIRECTION((0.,0.,1.));
#671=IFCCARTESIANPOINT((0.,0.,0.));
#672=IFCAXIS2PLACEMENT3D(#671,$,$);
#673=IFCEXTRUDEDAREASOLID(#669,#672,#670,0.59999999999999998);
#674=IFCSHAPEREPRESENTATION(#7,'Body','SweptSolid',(#673));
#675=IFCPRODUCTDEFINITIONSHAPE($,$,(#674));
#676=IFCCARTESIANPOINT((12.27,8.,1.8));
#677=IFCDIRECTION((0.,0.,1.));
#678=IFCDIRECTION((1.,0.,0.));
#679=IFCAXIS2PLACEMENT3D(#676,#677,#678);
#680=IFCLOCALPLACEMENT($,#679);
#681=IFCCOLOURRGB('SurfaceColor',0.69999999999999996,0.90000000000000002,1.);
#682=IFCSURFACESTYLESHADING(#681,0.5);
#683=IFCSURFACESTYLE('MaterialStyle',.BOTH.,(#682));
#684=IFCPRESENTATIONSTYLEASSIGNMENT((#683));
#685=IFCSTYLEDITEM(#673,(#684),$);
#686=IFCRELFILLSELEMENT($,$,$,$,#644,#663);
#687=IFCFURNITURE('282cnb$mD7MRZG2UMHzQ2f',$,'Master Bedroom Bed',$,$,#704,#699,$,$);
#688=IFCCARTESIANPOINT((0.,0.));
#689=IFCCARTESIANPOINT((2.,0.));
#690=IFCCARTESIANPOINT((2.,2.1000000000000001));
#691=IFCCARTESIANPOINT((0.,2.1000000000000001));
#692=IFCPOLYLINE((#688,#689,#690,#691,#688));
#693=IFCARBITRARYCLOSEDPROFILEDEF(.AREA.,$,#692);
#694=IFCDIRECTION((0.,0.,1.));
#695=IFCCARTESIANPOINT((0.,0.,0.));
#696=IFCAXIS2PLACEMENT3D(#695,$,$);
#697=IFCEXTRUDEDAREASOLID(#693,#696,#694,0.59999999999999998);
#698=IFCSHAPEREPRESENTATION(#7,'Body','SweptSolid',(#697));
#699=IFCPRODUCTDEFINITIONSHAPE($,$,(#698));
#700=IFCCARTESIANPOINT((0.80000000000000004,2.5,0.));
#701=IFCDIRECTION((0.,0.,1.));
#702=IFCDIRECTION((1.,0.,0.));
#703=IFCAXIS2PLACEMENT3D(#700,#701,#702);
#704=IFCLOCALPLACEMENT($,#703);
#705=IFCCOLOURRGB('SurfaceColor',0.20000000000000001,0.40000000000000002,0.40000000000000002);
#706=IFCSURFACESTYLESHADING(#705,0.);
#707=IFCSURFACESTYLE('MaterialStyle',.BOTH.,(#706));
#708=IFCPRESENTATIONSTYLEASSIGNMENT((#707));
#709=IFCSTYLEDITEM(#697,(#708),$);
#710=IFCFURNITURE('370pGFlBnC9h9iHPj0T0o6',$,'Bedroom 2 Queen Bed Layout',$,$,#727,#722,$,$);
#711=IFCCARTESIANPOINT((0.,0.));
#712=IFCCARTESIANPOINT((1.8,0.));
#713=IFCCARTESIANPOINT((1.8,2.));
#714=IFCCARTESIANPOINT((0.,2.));
#715=IFCPOLYLINE((#711,#712,#713,#714,#711));
#716=IFCARBITRARYCLOSEDPROFILEDEF(.AREA.,$,#715);
#717=IFCDIRECTION((0.,0.,1.));
#718=IFCCARTESIANPOINT((0.,0.,0.));
#719=IFCAXIS2PLACEMENT3D(#718,$,$);
#720=IFCEXTRUDEDAREASOLID(#716,#719,#717,0.59999999999999998);
#721=IFCSHAPEREPRESENTATION(#7,'Body','SweptSolid',(#720));
#722=IFCPRODUCTDEFINITIONSHAPE($,$,(#721));
#723=IFCCARTESIANPOINT((1.2,11.5,0.));
#724=IFCDIRECTION((0.,0.,1.));
#725=IFCDIRECTION((1.,0.,0.));
#726=IFCAXIS2PLACEMENT3D(#723,#724,#725);
#727=IFCLOCALPLACEMENT($,#726);
#728=IFCCOLOURRGB('SurfaceColor',0.10000000000000001,0.20000000000000001,0.5);
#729=IFCSURFACESTYLESHADING(#728,0.);
#730=IFCSURFACESTYLE('MaterialStyle',.BOTH.,(#729));
#731=IFCPRESENTATIONSTYLEASSIGNMENT((#730));
#732=IFCSTYLEDITEM(#720,(#731),$);
#733=IFCFURNITURE('1Hl032fDTAHxWhDXLQKcao',$,'Bedroom 1 Guest Bed Layout',$,$,#750,#745,$,$);
#734=IFCCARTESIANPOINT((0.,0.));
#735=IFCCARTESIANPOINT((1.8,0.));
#736=IFCCARTESIANPOINT((1.8,2.));
#737=IFCCARTESIANPOINT((0.,2.));
#738=IFCPOLYLINE((#734,#735,#736,#737,#734));
#739=IFCARBITRARYCLOSEDPROFILEDEF(.AREA.,$,#738);
#740=IFCDIRECTION((0.,0.,1.));
#741=IFCCARTESIANPOINT((0.,0.,0.));
#742=IFCAXIS2PLACEMENT3D(#741,$,$);
#743=IFCEXTRUDEDAREASOLID(#739,#742,#740,0.59999999999999998);
#744=IFCSHAPEREPRESENTATION(#7,'Body','SweptSolid',(#743));
#745=IFCPRODUCTDEFINITIONSHAPE($,$,(#744));
#746=IFCCARTESIANPOINT((9.5,11.5,0.));
#747=IFCDIRECTION((0.,0.,1.));
#748=IFCDIRECTION((1.,0.,0.));
#749=IFCAXIS2PLACEMENT3D(#746,#747,#748);
#750=IFCLOCALPLACEMENT($,#749);
#751=IFCCOLOURRGB('SurfaceColor',0.10000000000000001,0.20000000000000001,0.5);
#752=IFCSURFACESTYLESHADING(#751,0.);
#753=IFCSURFACESTYLE('MaterialStyle',.BOTH.,(#752));
#754=IFCPRESENTATIONSTYLEASSIGNMENT((#753));
#755=IFCSTYLEDITEM(#743,(#754),$);
#756=IFCFURNITURE('3PWqaQi_L0EutvTjKkJ7hF',$,'Central Living Sectional Sofa',$,$,#773,#768,$,$);
#757=IFCCARTESIANPOINT((0.,0.));
#758=IFCCARTESIANPOINT((3.2000000000000002,0.));
#759=IFCCARTESIANPOINT((3.2000000000000002,1.));
#760=IFCCARTESIANPOINT((0.,1.));
#761=IFCPOLYLINE((#757,#758,#759,#760,#757));
#762=IFCARBITRARYCLOSEDPROFILEDEF(.AREA.,$,#761);
#763=IFCDIRECTION((0.,0.,1.));
#764=IFCCARTESIANPOINT((0.,0.,0.));
#765=IFCAXIS2PLACEMENT3D(#764,$,$);
#766=IFCEXTRUDEDAREASOLID(#762,#765,#763,0.69999999999999996);
#767=IFCSHAPEREPRESENTATION(#7,'Body','SweptSolid',(#766));
#768=IFCPRODUCTDEFINITIONSHAPE($,$,(#767));
#769=IFCCARTESIANPOINT((1.5,6.5,0.));
#770=IFCDIRECTION((0.,0.,1.));
#771=IFCDIRECTION((1.,0.,0.));
#772=IFCAXIS2PLACEMENT3D(#769,#770,#771);
#773=IFCLOCALPLACEMENT($,#772);
#774=IFCCOLOURRGB('SurfaceColor',0.29999999999999999,0.29999999999999999,0.29999999999999999);
#775=IFCSURFACESTYLESHADING(#774,0.);
#776=IFCSURFACESTYLE('MaterialStyle',.BOTH.,(#775));
#777=IFCPRESENTATIONSTYLEASSIGNMENT((#776));
#778=IFCSTYLEDITEM(#766,(#777),$);
#779=IFCFURNITURE('1XCm6RrszB78bbQzE4CnNX',$,'Premium 6-Seater Wooden Dining Set',$,$,#796,#791,$,$);
#780=IFCCARTESIANPOINT((0.,0.));
#781=IFCCARTESIANPOINT((1.2,0.));
#782=IFCCARTESIANPOINT((1.2,2.));
#783=IFCCARTESIANPOINT((0.,2.));
#784=IFCPOLYLINE((#780,#781,#782,#783,#780));
#785=IFCARBITRARYCLOSEDPROFILEDEF(.AREA.,$,#784);
#786=IFCDIRECTION((0.,0.,1.));
#787=IFCCARTESIANPOINT((0.,0.,0.));
#788=IFCAXIS2PLACEMENT3D(#787,$,$);
#789=IFCEXTRUDEDAREASOLID(#785,#788,#786,0.75);
#790=IFCSHAPEREPRESENTATION(#7,'Body','SweptSolid',(#789));
#791=IFCPRODUCTDEFINITIONSHAPE($,$,(#790));
#792=IFCCARTESIANPOINT((4.,2.5,0.));
#793=IFCDIRECTION((0.,0.,1.));
#794=IFCDIRECTION((1.,0.,0.));
#795=IFCAXIS2PLACEMENT3D(#792,#793,#794);
#796=IFCLOCALPLACEMENT($,#795);
#797=IFCCOLOURRGB('SurfaceColor',0.45000000000000001,0.29999999999999999,0.20000000000000001);
#798=IFCSURFACESTYLESHADING(#797,0.);
#799=IFCSURFACESTYLE('MaterialStyle',.BOTH.,(#798));
#800=IFCPRESENTATIONSTYLEASSIGNMENT((#799));
#801=IFCSTYLEDITEM(#789,(#800),$);
#802=IFCFURNITURE('11BB$PWOr9ogfk3p9Wd8ry',$,'L-Shaped Kitchen Utility Counter',$,$,#819,#814,$,$);
#803=IFCCARTESIANPOINT((0.,0.));
#804=IFCCARTESIANPOINT((0.69999999999999996,0.));
#805=IFCCARTESIANPOINT((0.69999999999999996,3.5));
#806=IFCCARTESIANPOINT((0.,3.5));
#807=IFCPOLYLINE((#803,#804,#805,#806,#803));
#808=IFCARBITRARYCLOSEDPROFILEDEF(.AREA.,$,#807);
#809=IFCDIRECTION((0.,0.,1.));
#810=IFCCARTESIANPOINT((0.,0.,0.));
#811=IFCAXIS2PLACEMENT3D(#810,$,$);
#812=IFCEXTRUDEDAREASOLID(#808,#811,#809,0.90000000000000002);
#813=IFCSHAPEREPRESENTATION(#7,'Body','SweptSolid',(#812));
#814=IFCPRODUCTDEFINITIONSHAPE($,$,(#813));
#815=IFCCARTESIANPOINT((8.5999999999999996,0.5,0.));
#816=IFCDIRECTION((0.,0.,1.));
#817=IFCDIRECTION((1.,0.,0.));
#818=IFCAXIS2PLACEMENT3D(#815,#816,#817);
#819=IFCLOCALPLACEMENT($,#818);
#820=IFCCOLOURRGB('SurfaceColor',0.20000000000000001,0.20000000000000001,0.20000000000000001);
#821=IFCSURFACESTYLESHADING(#820,0.);
#822=IFCSURFACESTYLE('MaterialStyle',.BOTH.,(#821));
#823=IFCPRESENTATIONSTYLEASSIGNMENT((#822));
#824=IFCSTYLEDITEM(#812,(#823),$);
#825=IFCSANITARYTERMINAL('0F$p31o7v0GeoYFng_IJl8',$,'Master Suite Commode Terminal',$,$,#842,#837,$,$);
#826=IFCCARTESIANPOINT((0.,0.));
#827=IFCCARTESIANPOINT((0.5,0.));
#828=IFCCARTESIANPOINT((0.5,0.69999999999999996));
#829=IFCCARTESIANPOINT((0.,0.69999999999999996));
#830=IFCPOLYLINE((#826,#827,#828,#829,#826));
#831=IFCARBITRARYCLOSEDPROFILEDEF(.AREA.,$,#830);
#832=IFCDIRECTION((0.,0.,1.));
#833=IFCCARTESIANPOINT((0.,0.,0.));
#834=IFCAXIS2PLACEMENT3D(#833,$,$);
#835=IFCEXTRUDEDAREASOLID(#831,#834,#832,0.40000000000000002);
#836=IFCSHAPEREPRESENTATION(#7,'Body','SweptSolid',(#835));
#837=IFCPRODUCTDEFINITIONSHAPE($,$,(#836));
#838=IFCCARTESIANPOINT((0.5,0.5,0.));
#839=IFCDIRECTION((0.,0.,1.));
#840=IFCDIRECTION((1.,0.,0.));
#841=IFCAXIS2PLACEMENT3D(#838,#839,#840);
#842=IFCLOCALPLACEMENT($,#841);
#843=IFCCOLOURRGB('SurfaceColor',0.94999999999999996,0.94999999999999996,0.94999999999999996);
#844=IFCSURFACESTYLESHADING(#843,0.);
#845=IFCSURFACESTYLE('MaterialStyle',.BOTH.,(#844));
#846=IFCPRESENTATIONSTYLEASSIGNMENT((#845));
#847=IFCSTYLEDITEM(#835,(#846),$);
#848=IFCSANITARYTERMINAL('0$8VITbSj7jutGXzx8dKde',$,'Shared Central Washroom Commode',$,$,#865,#860,$,$);
#849=IFCCARTESIANPOINT((0.,0.));
#850=IFCCARTESIANPOINT((0.5,0.));
#851=IFCCARTESIANPOINT((0.5,0.69999999999999996));
#852=IFCCARTESIANPOINT((0.,0.69999999999999996));
#853=IFCPOLYLINE((#849,#850,#851,#852,#849));
#854=IFCARBITRARYCLOSEDPROFILEDEF(.AREA.,$,#853);
#855=IFCDIRECTION((0.,0.,1.));
#856=IFCCARTESIANPOINT((0.,0.,0.));
#857=IFCAXIS2PLACEMENT3D(#856,$,$);
#858=IFCEXTRUDEDAREASOLID(#854,#857,#855,0.40000000000000002);
#859=IFCSHAPEREPRESENTATION(#7,'Body','SweptSolid',(#858));
#860=IFCPRODUCTDEFINITIONSHAPE($,$,(#859));
#861=IFCCARTESIANPOINT((5.2000000000000002,13.5,0.));
#862=IFCDIRECTION((0.,0.,1.));
#863=IFCDIRECTION((1.,0.,0.));
#864=IFCAXIS2PLACEMENT3D(#861,#862,#863);
#865=IFCLOCALPLACEMENT($,#864);
#866=IFCCOLOURRGB('SurfaceColor',0.94999999999999996,0.94999999999999996,0.94999999999999996);
#867=IFCSURFACESTYLESHADING(#866,0.);
#868=IFCSURFACESTYLE('MaterialStyle',.BOTH.,(#867));
#869=IFCPRESENTATIONSTYLEASSIGNMENT((#868));
#870=IFCSTYLEDITEM(#858,(#869),$);
#871=IFCSPACE('1MMzPmNbL4PR2SzzU7923g',$,'Master Bed Room',$,$,$,$,$,$,$,$);
#872=IFCRELAGGREGATES('3pTPMjJBj8$RZVfTEIk60q',$,$,$,#10,(#871,#904,#877,#900,#913,#908,#887,#882,#897,#892));
#873=IFCRELSPACEBOUNDARY('3I2v92Idb9dv4HHtLWEt5H',$,$,$,#871,#291,$,.PHYSICAL.,.INTERNAL.);
#874=IFCRELSPACEBOUNDARY('3ZaEylq0D2SRudspY2ix5e',$,$,$,#871,#268,$,.PHYSICAL.,.INTERNAL.);
#875=IFCRELSPACEBOUNDARY('1QVVrCNUvFeQumxPf4XGnx',$,$,$,#871,#84,$,.PHYSICAL.,.INTERNAL.);
#876=IFCRELSPACEBOUNDARY('1TMaeawh55aO83q5ouJaQ_',$,$,$,#871,#38,$,.PHYSICAL.,.INTERNAL.);
#877=IFCSPACE('3fece7CGf1TOsX16IsJmG8',$,'Kitchen',$,$,$,$,$,$,$,$);
#882=IFCSPACE('3B4RiFXTn6Yhkw0slnyjAs',$,'Master Bedroom Washroom',$,$,$,$,$,$,$,$);
#883=IFCRELSPACEBOUNDARY('12K0lH$Xn3GuYLUxFvWPn3',$,$,$,#882,#314,$,.PHYSICAL.,.INTERNAL.);
#884=IFCRELSPACEBOUNDARY('2EkPjPAsP7CPZ1gC3N3K9O',$,$,$,#882,#337,$,.PHYSICAL.,.INTERNAL.);
#885=IFCRELSPACEBOUNDARY('183VbCXMD3FPA71HyiZFYW',$,$,$,#882,#38,$,.PHYSICAL.,.INTERNAL.);
#886=IFCRELSPACEBOUNDARY('3VJTxjrkH9wfV5PtqKL$3f',$,$,$,#882,#291,$,.PHYSICAL.,.INTERNAL.);
#887=IFCSPACE('0pyEMULgr8FxbxE1wCq2DN',$,'Bedroom 1',$,$,$,$,$,$,$,$);
#888=IFCRELSPACEBOUNDARY('0h_sYobEX6kxBO5$lrdmae',$,$,$,#887,#360,$,.PHYSICAL.,.INTERNAL.);
#889=IFCRELSPACEBOUNDARY('3k0llmZ5LAXvA9Q3pe3WsD',$,$,$,#887,#199,$,.PHYSICAL.,.INTERNAL.);
#890=IFCRELSPACEBOUNDARY('144Ym91JDErx0So7ZElx9r',$,$,$,#887,#61,$,.PHYSICAL.,.INTERNAL.);
#891=IFCRELSPACEBOUNDARY('0rK6hWVnD1wgQ79G_PpgFM',$,$,$,#887,#107,$,.PHYSICAL.,.INTERNAL.);
#892=IFCSPACE('0IYuiQd7D0MeHwU8iBgqLL',$,'Bedroom2',$,$,$,$,$,$,$,$);
#893=IFCRELSPACEBOUNDARY('3rhEIHAOz25u77LwpUlxBv',$,$,$,#892,#360,$,.PHYSICAL.,.INTERNAL.);
#894=IFCRELSPACEBOUNDARY('2LhAM52fD0BhfeTqJ7$GMH',$,$,$,#892,#199,$,.PHYSICAL.,.INTERNAL.);
#895=IFCRELSPACEBOUNDARY('3mDWkb72TBLh15ARyz8nQG',$,$,$,#892,#84,$,.PHYSICAL.,.INTERNAL.);
#896=IFCRELSPACEBOUNDARY('3sJTWmLpj9F9mgc$9ke$IC',$,$,$,#892,#61,$,.PHYSICAL.,.INTERNAL.);
#897=IFCSPACE('0mSOh7T0bC0hPQMQVyedtG',$,'Common Living Area Bathroom',$,$,$,$,$,$,$,$);
#898=IFCRELSPACEBOUNDARY('2Ro2eJWRrCkw8cRAcLgZiP',$,$,$,#897,#406,$,.PHYSICAL.,.INTERNAL.);
#899=IFCRELSPACEBOUNDARY('3g46lUT4nAHP91pBWnivjZ',$,$,$,#897,#383,$,.PHYSICAL.,.INTERNAL.);
#900=IFCSPACE('39AKyi17zFBey9XC$BuSZC',$,'Common Bedroom Bathroom',$,$,$,$,$,$,$,$);
#901=IFCRELSPACEBOUNDARY('3361KNyEj1hw4Yf8RUM0mg',$,$,$,#900,#130,$,.PHYSICAL.,.INTERNAL.);
#902=IFCRELSPACEBOUNDARY('2pudcVXuP0NAppRX3xnM8b',$,$,$,#900,#153,$,.PHYSICAL.,.INTERNAL.);
#903=IFCRELSPACEBOUNDARY('1sOfxAazj6yfMcQZDEq6ND',$,$,$,#900,#176,$,.PHYSICAL.,.INTERNAL.);
#904=IFCSPACE('2Q47vmaiv23Ap$$izDWOO7',$,'Living Area',$,$,$,$,$,$,$,$);
#905=IFCRELSPACEBOUNDARY('2t2XmS8cP03Oxs_gVvVsYJ',$,$,$,#904,#360,$,.PHYSICAL.,.INTERNAL.);
#906=IFCRELSPACEBOUNDARY('1gdDSPour4cwyHLjzY$sIO',$,$,$,#904,#84,$,.PHYSICAL.,.INTERNAL.);
#907=IFCRELSPACEBOUNDARY('2cizBY44L1BP$$947ISDBe',$,$,$,#904,#107,$,.PHYSICAL.,.INTERNAL.);
#908=IFCSPACE('03CHBH3zDA$w3PMMKOLqYX',$,'Bedroom2 Bed',$,$,$,$,$,$,$,$);
#909=IFCRELSPACEBOUNDARY('0jZq7Q_SDDthjryoDgnWQv',$,$,$,#908,#710,$,.PHYSICAL.,.INTERNAL.);
#910=IFCRELSPACEBOUNDARY('38bGUg$GjCcgCouMN1n6ns',$,$,$,#877,#222,$,.PHYSICAL.,.INTERNAL.);
#911=IFCRELSPACEBOUNDARY('3SaKDQRDf6rOgecjHNmyJz',$,$,$,#877,#245,$,.PHYSICAL.,.INTERNAL.);
#912=IFCRELSPACEBOUNDARY('0wvvyu3N1ChfUzJlA0_9$h',$,$,$,#877,#38,$,.PHYSICAL.,.INTERNAL.);
#913=IFCSPACE('20zvte4Y116vhvtS$6K8OL',$,'Living Area',$,$,$,$,$,$,$,$);
#914=IFCRELSPACEBOUNDARY('2ROhfGfInFBw8EE0d6lNSR',$,$,$,#913,#84,$,.PHYSICAL.,.INTERNAL.);
#915=IFCRELSPACEBOUNDARY('31gCXPGUH0PeXN2hdUGJTT',$,$,$,#913,#107,$,.PHYSICAL.,.INTERNAL.);
#916=IFCRELSPACEBOUNDARY('3GlmOlF5T0E8fp0wjNrOxK',$,$,$,#913,#268,$,.PHYSICAL.,.INTERNAL.);
#917=IFCRELSPACEBOUNDARY('1mCFTbFzv1kfSWsi6lGnBo',$,$,$,#913,#360,$,.PHYSICAL.,.INTERNAL.);
ENDSEC;
END-ISO-10303-21;
