ISO-10303-21;
HEADER;
FILE_DESCRIPTION(('ViewDefinition [CoordinationView]'),'2;1');
FILE_NAME('','2026-07-03T12:39:09',(''),(''),'IfcOpenShell 0.8.5-1c5b825','IfcOpenShell 0.8.5-1c5b825','');
FILE_SCHEMA(('IFC4'));
ENDSEC;
DATA;
#1=IFCCARTESIANPOINT((0.,0.,0.));
#2=IFCDIRECTION((0.,0.,1.));
#3=IFCDIRECTION((1.,0.,0.));
#4=IFCAXIS2PLACEMENT3D(#1,#2,#3);
#5=IFCGEOMETRICREPRESENTATIONCONTEXT('Model','Model',3,1.0000000000000001E-05,#4,$);
#6=IFCSIUNIT(*,.LENGTHUNIT.,$,.METRE.);
#7=IFCSIUNIT(*,.AREAUNIT.,$,.SQUARE_METRE.);
#8=IFCUNITASSIGNMENT((#6,#7));
#9=IFCPROJECT('3qEpLjOvv2geOmIh_9wChO',$,'FloorPlanProject',$,$,$,$,(#5),#8);
#10=IFCCARTESIANPOINT((0.,0.,0.));
#11=IFCDIRECTION((0.,0.,1.));
#12=IFCDIRECTION((1.,0.,0.));
#13=IFCAXIS2PLACEMENT3D(#10,#11,#12);
#14=IFCLOCALPLACEMENT($,#13);
#15=IFCCARTESIANPOINT((0.11730066903872324,0.91499567307726304));
#16=IFCCARTESIANPOINT((5.358087281187327,1.02499567307726));
#17=IFCCARTESIANPOINT((5.3589119042025093,0.875004326922737));
#18=IFCCARTESIANPOINT((0.11812529205389014,0.76500432692273701));
#19=IFCCARTESIANPOINT((0.11730066903872324,0.91499567307726304));
#20=IFCPOLYLINE((#15,#16,#17,#18,#19));
#21=IFCARBITRARYCLOSEDPROFILEDEF(.AREA.,$,#20);
#22=IFCCARTESIANPOINT((0.,0.,0.));
#23=IFCDIRECTION((0.,0.,1.));
#24=IFCDIRECTION((1.,0.,0.));
#25=IFCAXIS2PLACEMENT3D(#22,#23,#24);
#26=IFCDIRECTION((0.,0.,1.));
#27=IFCEXTRUDEDAREASOLID(#21,#25,#26,2.7000000000000002);
#28=IFCSHAPEREPRESENTATION(#5,'Body','SweptSolid',(#27));
#29=IFCPRODUCTDEFINITIONSHAPE($,$,(#28));
#30=IFCWALL('3UcYXIHnn6q8llDE66t1jR',$,'ExtWall_2',$,$,#14,#29,$,$);
ENDSEC;
END-ISO-10303-21;
