ISO-10303-21;
HEADER;
FILE_DESCRIPTION(('ViewDefinition[DesignTransferView]'),'2;1');
FILE_NAME('/dev/null','2026-07-17T08:50:14+05:30',(''),(''),'IfcOpenShell 0.8.5','IfcOpenShell 0.8.5','Nobody');
FILE_SCHEMA(('IFC4'));
ENDSEC;
DATA;
#1=IFCPROJECT('3qD8Jn7r54IA6V3mfqRF0P',$,'3BHK Interior Door Project',$,$,$,$,(#16),#5);
#2=IFCSIUNIT(*,.LENGTHUNIT.,$,.METRE.);
#3=IFCSIUNIT(*,.AREAUNIT.,$,.SQUARE_METRE.);
#4=IFCSIUNIT(*,.VOLUMEUNIT.,$,.CUBIC_METRE.);
#5=IFCUNITASSIGNMENT((#2,#3,#4));
#6=IFCSITE('2dJHIEohnFL9syqPcuLOfr',$,'Site',$,$,$,$,$,$,$,$,$,$,$);
#7=IFCBUILDING('3JP6oDuFH5av3LanU09Yzr',$,'Building',$,$,$,$,$,$,$,$,$);
#8=IFCBUILDINGSTOREY('30BAeY1mzFufqGJWKd_xvT',$,'Ground Floor',$,$,$,$,$,$,$);
#9=IFCRELAGGREGATES('2SDJxV1zjAgh7aH7Nj6STL',$,$,$,#1,(#6));
#10=IFCRELAGGREGATES('2Q0OPCrVfEYRdkYTGQ9vka',$,$,$,#6,(#7));
#11=IFCRELAGGREGATES('22TjjzaGvBLvBPoJY0829o',$,$,$,#7,(#8));
#12=IFCCARTESIANPOINT((0.,0.,0.));
#13=IFCDIRECTION((0.,0.,1.));
#14=IFCDIRECTION((1.,0.,0.));
#15=IFCAXIS2PLACEMENT3D(#12,#13,#14);
#16=IFCGEOMETRICREPRESENTATIONCONTEXT($,'Model',3,1.0000000000000001E-05,#15,$);
#17=IFCGEOMETRICREPRESENTATIONSUBCONTEXT('Body','Model',*,*,*,*,#16,$,.MODEL_VIEW.,$);
#18=IFCDOOR('3L6bZIlGH4WBnLHeva8l9g',$,'3BHK Interior Door',$,$,#84,#78,$,2.1000000000000001,0.90000000000000002,$,$,$);
#22=IFCCARTESIANPOINT((0.,-0.050000000000000003,0.));
#23=IFCAXIS2PLACEMENT3D(#22,$,$);
#24=IFCCARTESIANPOINT((0.,0.));
#25=IFCAXIS2PLACEMENT2D(#24,$);
#26=IFCRECTANGLEPROFILEDEF(.AREA.,'Rect',#25,0.050000000000000003,0.14999999999999999);
#27=IFCDIRECTION((0.,0.,1.));
#28=IFCEXTRUDEDAREASOLID(#26,#23,#27,2.1000000000000001);
#29=IFCCARTESIANPOINT((0.84999999999999998,-0.050000000000000003,0.));
#30=IFCAXIS2PLACEMENT3D(#29,$,$);
#31=IFCCARTESIANPOINT((0.,0.));
#32=IFCAXIS2PLACEMENT2D(#31,$);
#33=IFCRECTANGLEPROFILEDEF(.AREA.,'Rect',#32,0.050000000000000003,0.14999999999999999);
#34=IFCDIRECTION((0.,0.,1.));
#35=IFCEXTRUDEDAREASOLID(#33,#30,#34,2.1000000000000001);
#36=IFCCARTESIANPOINT((0.,-0.050000000000000003,2.0500000000000003));
#37=IFCAXIS2PLACEMENT3D(#36,$,$);
#38=IFCCARTESIANPOINT((0.,0.));
#39=IFCAXIS2PLACEMENT2D(#38,$);
#40=IFCRECTANGLEPROFILEDEF(.AREA.,'Rect',#39,0.90000000000000002,0.14999999999999999);
#41=IFCDIRECTION((0.,0.,1.));
#42=IFCEXTRUDEDAREASOLID(#40,#37,#41,0.050000000000000003);
#43=IFCCOLOURRGB($,0.59999999999999998,0.29999999999999999,0.10000000000000001);
#44=IFCSURFACESTYLERENDERING(#43,0.,$,$,$,$,$,$,.NOTDEFINED.);
#45=IFCSURFACESTYLE('Color',.BOTH.,(#44));
#46=IFCSTYLEDITEM(#28,(#45),$);
#47=IFCCOLOURRGB($,0.59999999999999998,0.29999999999999999,0.10000000000000001);
#48=IFCSURFACESTYLERENDERING(#47,0.,$,$,$,$,$,$,.NOTDEFINED.);
#49=IFCSURFACESTYLE('Color',.BOTH.,(#48));
#50=IFCSTYLEDITEM(#35,(#49),$);
#51=IFCCOLOURRGB($,0.59999999999999998,0.29999999999999999,0.10000000000000001);
#52=IFCSURFACESTYLERENDERING(#51,0.,$,$,$,$,$,$,.NOTDEFINED.);
#53=IFCSURFACESTYLE('Color',.BOTH.,(#52));
#54=IFCSTYLEDITEM(#42,(#53),$);
#55=IFCCARTESIANPOINT((0.050000000000000003,0.,0.));
#56=IFCAXIS2PLACEMENT3D(#55,$,$);
#57=IFCCARTESIANPOINT((0.,0.));
#58=IFCAXIS2PLACEMENT2D(#57,$);
#59=IFCRECTANGLEPROFILEDEF(.AREA.,'Rect',#58,0.80000000000000004,0.040000000000000001);
#60=IFCDIRECTION((0.,0.,1.));
#61=IFCEXTRUDEDAREASOLID(#59,#56,#60,2.0500000000000003);
#62=IFCCOLOURRGB($,0.69999999999999996,0.40000000000000002,0.20000000000000001);
#63=IFCSURFACESTYLERENDERING(#62,0.,$,$,$,$,$,$,.NOTDEFINED.);
#64=IFCSURFACESTYLE('Color',.BOTH.,(#63));
#65=IFCSTYLEDITEM(#61,(#64),$);
#66=IFCCARTESIANPOINT((0.69999999999999996,-0.02,1.05));
#67=IFCAXIS2PLACEMENT3D(#66,$,$);
#68=IFCCARTESIANPOINT((0.,0.));
#69=IFCAXIS2PLACEMENT2D(#68,$);
#70=IFCRECTANGLEPROFILEDEF(.AREA.,'Rect',#69,0.12,0.059999999999999998);
#71=IFCDIRECTION((0.,0.,1.));
#72=IFCEXTRUDEDAREASOLID(#70,#67,#71,0.029999999999999999);
#73=IFCCOLOURRGB($,0.80000000000000004,0.80000000000000004,0.80000000000000004);
#74=IFCSURFACESTYLERENDERING(#73,0.,$,$,$,$,$,$,.NOTDEFINED.);
#75=IFCSURFACESTYLE('Color',.BOTH.,(#74));
#76=IFCSTYLEDITEM(#72,(#75),$);
#77=IFCSHAPEREPRESENTATION(#17,'Body','SweptSolid',(#28,#35,#42,#61,#72));
#78=IFCPRODUCTDEFINITIONSHAPE($,$,(#77));
#79=IFCRELCONTAINEDINSPATIALSTRUCTURE('1bbgW7ubP3GOXVhnVABqeM',$,$,$,(#18),#8);
#80=IFCCARTESIANPOINT((0.,0.,0.));
#81=IFCDIRECTION((0.,0.,1.));
#82=IFCDIRECTION((1.,0.,0.));
#83=IFCAXIS2PLACEMENT3D(#80,#81,#82);
#84=IFCLOCALPLACEMENT($,#83);
ENDSEC;
END-ISO-10303-21;
