ISO-10303-21;
HEADER;
FILE_DESCRIPTION(('ViewDefinition [CoordinationView]'),'2;1');
FILE_NAME('','2026-07-06T11:08:22',(''),(''),'IfcOpenShell 0.8.5-1c5b825','IfcOpenShell 0.8.5-1c5b825','');
FILE_SCHEMA(('IFC4'));
ENDSEC;
DATA;
#1=IFCPERSON('Sushil','Dev',$,$,$,$,$,$);
#2=IFCORGANIZATION($,'Entrevista Media',$,$,$);
#3=IFCPERSONANDORGANIZATION(#1,#2,$);
#4=IFCAPPLICATION(#2,'1.0','OonexBIM',$);
#5=IFCOWNERHISTORY(#3,#4,$,.ADDED.,$,$,$,1781022367);
#6=IFCCARTESIANPOINT((0.,0.,0.));
#7=IFCAXIS2PLACEMENT3D(#6,$,$);
#8=IFCGEOMETRICREPRESENTATIONCONTEXT($,'Model',3,1.0000000000000001E-05,#7,$);
#9=IFCSIUNIT(*,.LENGTHUNIT.,$,.METRE.);
#10=IFCUNITASSIGNMENT((#9));
#11=IFCPROJECT('23tzKN_VT4O9oZkcxt_LVJ',#5,'3 BHK Apartment Plan',$,$,$,$,(#8),#10);
#12=IFCLOCALPLACEMENT($,#7);
#13=IFCLOCALPLACEMENT(#12,#7);
#14=IFCLOCALPLACEMENT(#13,#7);
#15=IFCCARTESIANPOINT((4.5,4.,0.));
#16=IFCDIRECTION((1.,0.,0.));
#17=IFCAXIS2PLACEMENT3D(#15,$,#16);
#18=IFCLOCALPLACEMENT(#14,#17);
#19=IFCCARTESIANPOINT((0.,-0.057500000000000002));
#20=IFCCARTESIANPOINT((3.2000000000000002,-0.057500000000000002));
#21=IFCCARTESIANPOINT((3.2000000000000002,0.057500000000000002));
#22=IFCCARTESIANPOINT((0.,0.057500000000000002));
#23=IFCCARTESIANPOINT((0.,-0.057500000000000002));
#24=IFCPOLYLINE((#19,#20,#21,#22,#23));
#25=IFCARBITRARYCLOSEDPROFILEDEF(.AREA.,$,#24);
#26=IFCDIRECTION((0.,0.,1.));
#27=IFCEXTRUDEDAREASOLID(#25,#7,#26,3.);
#28=IFCSHAPEREPRESENTATION(#8,'Body','SweptSolid',(#27));
#29=IFCPRODUCTDEFINITIONSHAPE($,$,(#28));
#30=IFCWALLSTANDARDCASE('2QT25jfNr8zv86r7JZx7eq',$,'int_liv_din_beam',$,$,#18,#29,$,$);
ENDSEC;
END-ISO-10303-21;
