ISO-10303-21;
HEADER;
FILE_DESCRIPTION(('ViewDefinition [CoordinationView]'),'2;1');
FILE_NAME('','2026-09-10T13:19:50',(''),(''),'IfcOpenShell 0.8.5-1c5b825','IfcOpenShell 0.8.5-1c5b825','');
FILE_SCHEMA(('IFC4'));
ENDSEC;
DATA;
#1=IFCPROJECT('16X0831ZDEp9ZDdWVNKyma',$,'3BHK Flat Project',$,$,$,$,(#10),#5);
#2=IFCSIUNIT(*,.LENGTHUNIT.,$,.METRE.);
#3=IFCSIUNIT(*,.AREAUNIT.,$,.SQUARE_METRE.);
#4=IFCSIUNIT(*,.VOLUMEUNIT.,$,.CUBIC_METRE.);
#5=IFCUNITASSIGNMENT((#4,#2,#3));
#6=IFCCARTESIANPOINT((0.,0.,0.));
#7=IFCDIRECTION((0.,0.,1.));
#8=IFCDIRECTION((1.,0.,0.));
#9=IFCAXIS2PLACEMENT3D(#6,#7,#8);
#10=IFCGEOMETRICREPRESENTATIONCONTEXT($,'Model',3,1.0000000000000001E-05,#9,$);
#11=IFCGEOMETRICREPRESENTATIONSUBCONTEXT('Body','Body',*,*,*,*,#10,$,.MODEL_VIEW.,$);
#12=IFCSITE('1jDswWzVTFvRn9iHNVOy8l',$,'Residential Site',$,$,$,$,$,$,$,$,$,$,$);
#13=IFCBUILDING('3jdSiB$MzBVeI3M95b9o$m',$,'Apartment Block',$,$,$,$,$,$,$,$,$);
#14=IFCBUILDINGSTOREY('0NS1unUCX4d8XYmtQlytcB',$,'First Floor',$,$,$,$,$,$,$);
#15=IFCRELAGGREGATES('1p8HI_yJzDSQ7MgvZAmXV$',$,$,$,#1,(#12));
#16=IFCRELAGGREGATES('3623BzjYn2XfvTH5wgtS$t',$,$,$,#12,(#13));
#17=IFCRELAGGREGATES('3qLH8hTlPDkxe1P98JDDIo',$,$,$,#13,(#14));
#18=IFCSLAB('0r7XzyYzfA8O6N$V2mrk4E',$,'Main Floor Slab Base',$,$,#36,#31,$,$);
#19=IFCRELCONTAINEDINSPATIALSTRUCTURE('2TcSw1PJ932hIMSW_GLY3f',$,$,$,(#217,#622,#63,#305,#371,#393,#580,#855,#538,#877,#813,#899,#496,#129,#771,#921,#454,#729,#412,#687,#18,#645,#349,#832,#790,#261,#603,#561,#519,#477,#748,#706,#664,#435,#85,#107,#151,#173,#195,#239,#41,#283,#327),#14);
#20=IFCCARTESIANPOINT((0.,0.));
#21=IFCCARTESIANPOINT((10.199999999999999,0.));
#22=IFCCARTESIANPOINT((10.199999999999999,13.699999999999999));
#23=IFCCARTESIANPOINT((0.,13.699999999999999));
#24=IFCPOLYLINE((#20,#21,#22,#23,#20));
#25=IFCARBITRARYCLOSEDPROFILEDEF(.AREA.,$,#24);
#26=IFCDIRECTION((0.,0.,1.));
#27=IFCCARTESIANPOINT((0.,0.,0.));
#28=IFCAXIS2PLACEMENT3D(#27,$,$);
#29=IFCEXTRUDEDAREASOLID(#25,#28,#26,0.20000000000000001);
#30=IFCSHAPEREPRESENTATION(#11,'Body','SweptSolid',(#29));
#31=IFCPRODUCTDEFINITIONSHAPE($,$,(#30));
#32=IFCCARTESIANPOINT((0.,0.,-0.20000000000000001));
#33=IFCDIRECTION((0.,0.,1.));
#34=IFCDIRECTION((1.,0.,0.));
#35=IFCAXIS2PLACEMENT3D(#32,#33,#34);
#36=IFCLOCALPLACEMENT($,#35);
#37=IFCCOLOURRGB('SurfaceColor',0.20000000000000001,0.20000000000000001,0.25);
#38=IFCSURFACESTYLESHADING(#37,0.);
#39=IFCSURFACESTYLE('MaterialStyle',.BOTH.,(#38));
#40=IFCSTYLEDITEM(#29,(#39),$);
#41=IFCWALL('0THhy0A_n9leIod17eTPqh',$,'Ext Wall South',$,$,#58,#53,$,$);
#42=IFCCARTESIANPOINT((0.,0.));
#43=IFCCARTESIANPOINT((10.199999999999999,0.));
#44=IFCCARTESIANPOINT((10.199999999999999,0.23000000000000001));
#45=IFCCARTESIANPOINT((0.,0.23000000000000001));
#46=IFCPOLYLINE((#42,#43,#44,#45,#42));
#47=IFCARBITRARYCLOSEDPROFILEDEF(.AREA.,$,#46);
#48=IFCDIRECTION((0.,0.,1.));
#49=IFCCARTESIANPOINT((0.,0.,0.));
#50=IFCAXIS2PLACEMENT3D(#49,$,$);
#51=IFCEXTRUDEDAREASOLID(#47,#50,#48,3.);
#52=IFCSHAPEREPRESENTATION(#11,'Body','SweptSolid',(#51));
#53=IFCPRODUCTDEFINITIONSHAPE($,$,(#52));
#54=IFCCARTESIANPOINT((0.,0.,0.));
#55=IFCDIRECTION((0.,0.,1.));
#56=IFCDIRECTION((1.,0.,0.));
#57=IFCAXIS2PLACEMENT3D(#54,#55,#56);
#58=IFCLOCALPLACEMENT($,#57);
#59=IFCCOLOURRGB('SurfaceColor',0.94999999999999996,0.93000000000000005,0.88);
#60=IFCSURFACESTYLESHADING(#59,0.);
#61=IFCSURFACESTYLE('MaterialStyle',.BOTH.,(#60));
#62=IFCSTYLEDITEM(#51,(#61),$);
#63=IFCWALL('1f1Mav7WH7xA4tDzZiKyrd',$,'Ext Wall North',$,$,#80,#75,$,$);
#64=IFCCARTESIANPOINT((0.,0.));
#65=IFCCARTESIANPOINT((10.199999999999999,0.));
#66=IFCCARTESIANPOINT((10.199999999999999,0.23000000000000001));
#67=IFCCARTESIANPOINT((0.,0.23000000000000001));
#68=IFCPOLYLINE((#64,#65,#66,#67,#64));
#69=IFCARBITRARYCLOSEDPROFILEDEF(.AREA.,$,#68);
#70=IFCDIRECTION((0.,0.,1.));
#71=IFCCARTESIANPOINT((0.,0.,0.));
#72=IFCAXIS2PLACEMENT3D(#71,$,$);
#73=IFCEXTRUDEDAREASOLID(#69,#72,#70,3.);
#74=IFCSHAPEREPRESENTATION(#11,'Body','SweptSolid',(#73));
#75=IFCPRODUCTDEFINITIONSHAPE($,$,(#74));
#76=IFCCARTESIANPOINT((0.,13.470000000000001,0.));
#77=IFCDIRECTION((0.,0.,1.));
#78=IFCDIRECTION((1.,0.,0.));
#79=IFCAXIS2PLACEMENT3D(#76,#77,#78);
#80=IFCLOCALPLACEMENT($,#79);
#81=IFCCOLOURRGB('SurfaceColor',0.94999999999999996,0.93000000000000005,0.88);
#82=IFCSURFACESTYLESHADING(#81,0.);
#83=IFCSURFACESTYLE('MaterialStyle',.BOTH.,(#82));
#84=IFCSTYLEDITEM(#73,(#83),$);
#85=IFCWALL('3PW2KTlaX4gRPCEyMFuiCn',$,'Ext Wall West',$,$,#102,#97,$,$);
#86=IFCCARTESIANPOINT((0.,0.));
#87=IFCCARTESIANPOINT((0.23000000000000001,0.));
#88=IFCCARTESIANPOINT((0.23000000000000001,13.699999999999999));
#89=IFCCARTESIANPOINT((0.,13.699999999999999));
#90=IFCPOLYLINE((#86,#87,#88,#89,#86));
#91=IFCARBITRARYCLOSEDPROFILEDEF(.AREA.,$,#90);
#92=IFCDIRECTION((0.,0.,1.));
#93=IFCCARTESIANPOINT((0.,0.,0.));
#94=IFCAXIS2PLACEMENT3D(#93,$,$);
#95=IFCEXTRUDEDAREASOLID(#91,#94,#92,3.);
#96=IFCSHAPEREPRESENTATION(#11,'Body','SweptSolid',(#95));
#97=IFCPRODUCTDEFINITIONSHAPE($,$,(#96));
#98=IFCCARTESIANPOINT((0.,0.,0.));
#99=IFCDIRECTION((0.,0.,1.));
#100=IFCDIRECTION((1.,0.,0.));
#101=IFCAXIS2PLACEMENT3D(#98,#99,#100);
#102=IFCLOCALPLACEMENT($,#101);
#103=IFCCOLOURRGB('SurfaceColor',0.94999999999999996,0.93000000000000005,0.88);
#104=IFCSURFACESTYLESHADING(#103,0.);
#105=IFCSURFACESTYLE('MaterialStyle',.BOTH.,(#104));
#106=IFCSTYLEDITEM(#95,(#105),$);
#107=IFCWALL('25atVWYIPFTuRSjOU1X5R6',$,'Ext Wall East',$,$,#124,#119,$,$);
#108=IFCCARTESIANPOINT((0.,0.));
#109=IFCCARTESIANPOINT((0.23000000000000001,0.));
#110=IFCCARTESIANPOINT((0.23000000000000001,13.699999999999999));
#111=IFCCARTESIANPOINT((0.,13.699999999999999));
#112=IFCPOLYLINE((#108,#109,#110,#111,#108));
#113=IFCARBITRARYCLOSEDPROFILEDEF(.AREA.,$,#112);
#114=IFCDIRECTION((0.,0.,1.));
#115=IFCCARTESIANPOINT((0.,0.,0.));
#116=IFCAXIS2PLACEMENT3D(#115,$,$);
#117=IFCEXTRUDEDAREASOLID(#113,#116,#114,3.);
#118=IFCSHAPEREPRESENTATION(#11,'Body','SweptSolid',(#117));
#119=IFCPRODUCTDEFINITIONSHAPE($,$,(#118));
#120=IFCCARTESIANPOINT((9.9700000000000006,0.,0.));
#121=IFCDIRECTION((0.,0.,1.));
#122=IFCDIRECTION((1.,0.,0.));
#123=IFCAXIS2PLACEMENT3D(#120,#121,#122);
#124=IFCLOCALPLACEMENT($,#123);
#125=IFCCOLOURRGB('SurfaceColor',0.94999999999999996,0.93000000000000005,0.88);
#126=IFCSURFACESTYLESHADING(#125,0.);
#127=IFCSURFACESTYLE('MaterialStyle',.BOTH.,(#126));
#128=IFCSTYLEDITEM(#117,(#127),$);
#129=IFCWALL('3ljRD0ajzBn9eB0ULSDdLk',$,'Int Wall Kitchen Split',$,$,#146,#141,$,$);
#130=IFCCARTESIANPOINT((0.,0.));
#131=IFCCARTESIANPOINT((0.11,0.));
#132=IFCCARTESIANPOINT((0.11,4.));
#133=IFCCARTESIANPOINT((0.,4.));
#134=IFCPOLYLINE((#130,#131,#132,#133,#130));
#135=IFCARBITRARYCLOSEDPROFILEDEF(.AREA.,$,#134);
#136=IFCDIRECTION((0.,0.,1.));
#137=IFCCARTESIANPOINT((0.,0.,0.));
#138=IFCAXIS2PLACEMENT3D(#137,$,$);
#139=IFCEXTRUDEDAREASOLID(#135,#138,#136,3.);
#140=IFCSHAPEREPRESENTATION(#11,'Body','SweptSolid',(#139));
#141=IFCPRODUCTDEFINITIONSHAPE($,$,(#140));
#142=IFCCARTESIANPOINT((4.7999999999999998,0.,0.));
#143=IFCDIRECTION((0.,0.,1.));
#144=IFCDIRECTION((1.,0.,0.));
#145=IFCAXIS2PLACEMENT3D(#142,#143,#144);
#146=IFCLOCALPLACEMENT($,#145);
#147=IFCCOLOURRGB('SurfaceColor',0.94999999999999996,0.93000000000000005,0.88);
#148=IFCSURFACESTYLESHADING(#147,0.);
#149=IFCSURFACESTYLE('MaterialStyle',.BOTH.,(#148));
#150=IFCSTYLEDITEM(#139,(#149),$);
#151=IFCWALL('2eywE8TN1FdQcVVCCEdzq9',$,'Int Wall Main Hallway',$,$,#168,#163,$,$);
#152=IFCCARTESIANPOINT((0.,0.));
#153=IFCCARTESIANPOINT((9.7400000000000002,0.));
#154=IFCCARTESIANPOINT((9.7400000000000002,0.11));
#155=IFCCARTESIANPOINT((0.,0.11));
#156=IFCPOLYLINE((#152,#153,#154,#155,#152));
#157=IFCARBITRARYCLOSEDPROFILEDEF(.AREA.,$,#156);
#158=IFCDIRECTION((0.,0.,1.));
#159=IFCCARTESIANPOINT((0.,0.,0.));
#160=IFCAXIS2PLACEMENT3D(#159,$,$);
#161=IFCEXTRUDEDAREASOLID(#157,#160,#158,3.);
#162=IFCSHAPEREPRESENTATION(#11,'Body','SweptSolid',(#161));
#163=IFCPRODUCTDEFINITIONSHAPE($,$,(#162));
#164=IFCCARTESIANPOINT((0.23000000000000001,6.7000000000000002,0.));
#165=IFCDIRECTION((0.,0.,1.));
#166=IFCDIRECTION((1.,0.,0.));
#167=IFCAXIS2PLACEMENT3D(#164,#165,#166);
#168=IFCLOCALPLACEMENT($,#167);
#169=IFCCOLOURRGB('SurfaceColor',0.94999999999999996,0.93000000000000005,0.88);
#170=IFCSURFACESTYLESHADING(#169,0.);
#171=IFCSURFACESTYLE('MaterialStyle',.BOTH.,(#170));
#172=IFCSTYLEDITEM(#161,(#171),$);
#173=IFCWALL('1jna2fLOTDjBnWoV0ATSia',$,'Int Wall Bed1/Bed2 Split',$,$,#190,#185,$,$);
#174=IFCCARTESIANPOINT((0.,0.));
#175=IFCCARTESIANPOINT((0.11,0.));
#176=IFCCARTESIANPOINT((0.11,6.54));
#177=IFCCARTESIANPOINT((0.,6.54));
#178=IFCPOLYLINE((#174,#175,#176,#177,#174));
#179=IFCARBITRARYCLOSEDPROFILEDEF(.AREA.,$,#178);
#180=IFCDIRECTION((0.,0.,1.));
#181=IFCCARTESIANPOINT((0.,0.,0.));
#182=IFCAXIS2PLACEMENT3D(#181,$,$);
#183=IFCEXTRUDEDAREASOLID(#179,#182,#180,3.);
#184=IFCSHAPEREPRESENTATION(#11,'Body','SweptSolid',(#183));
#185=IFCPRODUCTDEFINITIONSHAPE($,$,(#184));
#186=IFCCARTESIANPOINT((4.,6.8099999999999996,0.));
#187=IFCDIRECTION((0.,0.,1.));
#188=IFCDIRECTION((1.,0.,0.));
#189=IFCAXIS2PLACEMENT3D(#186,#187,#188);
#190=IFCLOCALPLACEMENT($,#189);
#191=IFCCOLOURRGB('SurfaceColor',0.94999999999999996,0.93000000000000005,0.88);
#192=IFCSURFACESTYLESHADING(#191,0.);
#193=IFCSURFACESTYLE('MaterialStyle',.BOTH.,(#192));
#194=IFCSTYLEDITEM(#183,(#193),$);
#195=IFCWALL('1zwC1tYeT548FZ1nCT_O3A',$,'Int Wall Bed2/Bed3 Split',$,$,#212,#207,$,$);
#196=IFCCARTESIANPOINT((0.,0.));
#197=IFCCARTESIANPOINT((0.11,0.));
#198=IFCCARTESIANPOINT((0.11,6.54));
#199=IFCCARTESIANPOINT((0.,6.54));
#200=IFCPOLYLINE((#196,#197,#198,#199,#196));
#201=IFCARBITRARYCLOSEDPROFILEDEF(.AREA.,$,#200);
#202=IFCDIRECTION((0.,0.,1.));
#203=IFCCARTESIANPOINT((0.,0.,0.));
#204=IFCAXIS2PLACEMENT3D(#203,$,$);
#205=IFCEXTRUDEDAREASOLID(#201,#204,#202,3.);
#206=IFCSHAPEREPRESENTATION(#11,'Body','SweptSolid',(#205));
#207=IFCPRODUCTDEFINITIONSHAPE($,$,(#206));
#208=IFCCARTESIANPOINT((7.,6.8099999999999996,0.));
#209=IFCDIRECTION((0.,0.,1.));
#210=IFCDIRECTION((1.,0.,0.));
#211=IFCAXIS2PLACEMENT3D(#208,#209,#210);
#212=IFCLOCALPLACEMENT($,#211);
#213=IFCCOLOURRGB('SurfaceColor',0.94999999999999996,0.93000000000000005,0.88);
#214=IFCSURFACESTYLESHADING(#213,0.);
#215=IFCSURFACESTYLE('MaterialStyle',.BOTH.,(#214));
#216=IFCSTYLEDITEM(#205,(#215),$);
#217=IFCWALL('1tw2EZh9931ujE1iuZY$hJ',$,'Int Wall Master Bath Side',$,$,#234,#229,$,$);
#218=IFCCARTESIANPOINT((0.,0.));
#219=IFCCARTESIANPOINT((0.11,0.));
#220=IFCCARTESIANPOINT((0.11,2.3999999999999999));
#221=IFCCARTESIANPOINT((0.,2.3999999999999999));
#222=IFCPOLYLINE((#218,#219,#220,#221,#218));
#223=IFCARBITRARYCLOSEDPROFILEDEF(.AREA.,$,#222);
#224=IFCDIRECTION((0.,0.,1.));
#225=IFCCARTESIANPOINT((0.,0.,0.));
#226=IFCAXIS2PLACEMENT3D(#225,$,$);
#227=IFCEXTRUDEDAREASOLID(#223,#226,#224,3.);
#228=IFCSHAPEREPRESENTATION(#11,'Body','SweptSolid',(#227));
#229=IFCPRODUCTDEFINITIONSHAPE($,$,(#228));
#230=IFCCARTESIANPOINT((2.2000000000000002,11.07,0.));
#231=IFCDIRECTION((0.,0.,1.));
#232=IFCDIRECTION((1.,0.,0.));
#233=IFCAXIS2PLACEMENT3D(#230,#231,#232);
#234=IFCLOCALPLACEMENT($,#233);
#235=IFCCOLOURRGB('SurfaceColor',0.94999999999999996,0.93000000000000005,0.88);
#236=IFCSURFACESTYLESHADING(#235,0.);
#237=IFCSURFACESTYLE('MaterialStyle',.BOTH.,(#236));
#238=IFCSTYLEDITEM(#227,(#237),$);
#239=IFCWALL('3DEA_MNXD5VxajVTp6JF9b',$,'Int Wall Master Bath Front',$,$,#256,#251,$,$);
#240=IFCCARTESIANPOINT((0.,0.));
#241=IFCCARTESIANPOINT((1.97,0.));
#242=IFCCARTESIANPOINT((1.97,0.11));
#243=IFCCARTESIANPOINT((0.,0.11));
#244=IFCPOLYLINE((#240,#241,#242,#243,#240));
#245=IFCARBITRARYCLOSEDPROFILEDEF(.AREA.,$,#244);
#246=IFCDIRECTION((0.,0.,1.));
#247=IFCCARTESIANPOINT((0.,0.,0.));
#248=IFCAXIS2PLACEMENT3D(#247,$,$);
#249=IFCEXTRUDEDAREASOLID(#245,#248,#246,3.);
#250=IFCSHAPEREPRESENTATION(#11,'Body','SweptSolid',(#249));
#251=IFCPRODUCTDEFINITIONSHAPE($,$,(#250));
#252=IFCCARTESIANPOINT((0.23000000000000001,11.07,0.));
#253=IFCDIRECTION((0.,0.,1.));
#254=IFCDIRECTION((1.,0.,0.));
#255=IFCAXIS2PLACEMENT3D(#252,#253,#254);
#256=IFCLOCALPLACEMENT($,#255);
#257=IFCCOLOURRGB('SurfaceColor',0.94999999999999996,0.93000000000000005,0.88);
#258=IFCSURFACESTYLESHADING(#257,0.);
#259=IFCSURFACESTYLE('MaterialStyle',.BOTH.,(#258));
#260=IFCSTYLEDITEM(#249,(#259),$);
#261=IFCWALL('1NsnZvLjH1XAV3rNHyO8w8',$,'Int Wall Common Bath Side',$,$,#278,#273,$,$);
#262=IFCCARTESIANPOINT((0.,0.));
#263=IFCCARTESIANPOINT((0.11,0.));
#264=IFCCARTESIANPOINT((0.11,2.3999999999999999));
#265=IFCCARTESIANPOINT((0.,2.3999999999999999));
#266=IFCPOLYLINE((#262,#263,#264,#265,#262));
#267=IFCARBITRARYCLOSEDPROFILEDEF(.AREA.,$,#266);
#268=IFCDIRECTION((0.,0.,1.));
#269=IFCCARTESIANPOINT((0.,0.,0.));
#270=IFCAXIS2PLACEMENT3D(#269,$,$);
#271=IFCEXTRUDEDAREASOLID(#267,#270,#268,3.);
#272=IFCSHAPEREPRESENTATION(#11,'Body','SweptSolid',(#271));
#273=IFCPRODUCTDEFINITIONSHAPE($,$,(#272));
#274=IFCCARTESIANPOINT((7.7999999999999998,0.23000000000000001,0.));
#275=IFCDIRECTION((0.,0.,1.));
#276=IFCDIRECTION((1.,0.,0.));
#277=IFCAXIS2PLACEMENT3D(#274,#275,#276);
#278=IFCLOCALPLACEMENT($,#277);
#279=IFCCOLOURRGB('SurfaceColor',0.94999999999999996,0.93000000000000005,0.88);
#280=IFCSURFACESTYLESHADING(#279,0.);
#281=IFCSURFACESTYLE('MaterialStyle',.BOTH.,(#280));
#282=IFCSTYLEDITEM(#271,(#281),$);
#283=IFCWALL('08sCtP9Az8ShDM7GFSJzvT',$,'Int Wall Common Bath Front',$,$,#300,#295,$,$);
#284=IFCCARTESIANPOINT((0.,0.));
#285=IFCCARTESIANPOINT((2.0600000000000001,0.));
#286=IFCCARTESIANPOINT((2.0600000000000001,0.11));
#287=IFCCARTESIANPOINT((0.,0.11));
#288=IFCPOLYLINE((#284,#285,#286,#287,#284));
#289=IFCARBITRARYCLOSEDPROFILEDEF(.AREA.,$,#288);
#290=IFCDIRECTION((0.,0.,1.));
#291=IFCCARTESIANPOINT((0.,0.,0.));
#292=IFCAXIS2PLACEMENT3D(#291,$,$);
#293=IFCEXTRUDEDAREASOLID(#289,#292,#290,3.);
#294=IFCSHAPEREPRESENTATION(#11,'Body','SweptSolid',(#293));
#295=IFCPRODUCTDEFINITIONSHAPE($,$,(#294));
#296=IFCCARTESIANPOINT((7.7999999999999998,2.6299999999999999,0.));
#297=IFCDIRECTION((0.,0.,1.));
#298=IFCDIRECTION((1.,0.,0.));
#299=IFCAXIS2PLACEMENT3D(#296,#297,#298);
#300=IFCLOCALPLACEMENT($,#299);
#301=IFCCOLOURRGB('SurfaceColor',0.94999999999999996,0.93000000000000005,0.88);
#302=IFCSURFACESTYLESHADING(#301,0.);
#303=IFCSURFACESTYLE('MaterialStyle',.BOTH.,(#302));
#304=IFCSTYLEDITEM(#293,(#303),$);
#305=IFCSLAB('0hJx5GCe1BKgaWIAmX_bBN',$,'Balcony Concrete Deck',$,$,#322,#317,$,$);
#306=IFCCARTESIANPOINT((0.,0.));
#307=IFCCARTESIANPOINT((1.5,0.));
#308=IFCCARTESIANPOINT((1.5,3.5));
#309=IFCCARTESIANPOINT((0.,3.5));
#310=IFCPOLYLINE((#306,#307,#308,#309,#306));
#311=IFCARBITRARYCLOSEDPROFILEDEF(.AREA.,$,#310);
#312=IFCDIRECTION((0.,0.,1.));
#313=IFCCARTESIANPOINT((0.,0.,0.));
#314=IFCAXIS2PLACEMENT3D(#313,$,$);
#315=IFCEXTRUDEDAREASOLID(#311,#314,#312,0.14999999999999999);
#316=IFCSHAPEREPRESENTATION(#11,'Body','SweptSolid',(#315));
#317=IFCPRODUCTDEFINITIONSHAPE($,$,(#316));
#318=IFCCARTESIANPOINT((-1.5,2.,-0.14999999999999999));
#319=IFCDIRECTION((0.,0.,1.));
#320=IFCDIRECTION((1.,0.,0.));
#321=IFCAXIS2PLACEMENT3D(#318,#319,#320);
#322=IFCLOCALPLACEMENT($,#321);
#323=IFCCOLOURRGB('SurfaceColor',0.40000000000000002,0.40000000000000002,0.40000000000000002);
#324=IFCSURFACESTYLESHADING(#323,0.);
#325=IFCSURFACESTYLE('MaterialStyle',.BOTH.,(#324));
#326=IFCSTYLEDITEM(#315,(#325),$);
#327=IFCRAILING('1wM$_qqjb40x4cuGxZ8yZO',$,'Balcony Front Rail',$,$,#344,#339,$,$);
#328=IFCCARTESIANPOINT((0.,0.));
#329=IFCCARTESIANPOINT((0.050000000000000003,0.));
#330=IFCCARTESIANPOINT((0.050000000000000003,3.5));
#331=IFCCARTESIANPOINT((0.,3.5));
#332=IFCPOLYLINE((#328,#329,#330,#331,#328));
#333=IFCARBITRARYCLOSEDPROFILEDEF(.AREA.,$,#332);
#334=IFCDIRECTION((0.,0.,1.));
#335=IFCCARTESIANPOINT((0.,0.,0.));
#336=IFCAXIS2PLACEMENT3D(#335,$,$);
#337=IFCEXTRUDEDAREASOLID(#333,#336,#334,1.1000000000000001);
#338=IFCSHAPEREPRESENTATION(#11,'Body','SweptSolid',(#337));
#339=IFCPRODUCTDEFINITIONSHAPE($,$,(#338));
#340=IFCCARTESIANPOINT((-1.5,2.,0.));
#341=IFCDIRECTION((0.,0.,1.));
#342=IFCDIRECTION((1.,0.,0.));
#343=IFCAXIS2PLACEMENT3D(#340,#341,#342);
#344=IFCLOCALPLACEMENT($,#343);
#345=IFCCOLOURRGB('SurfaceColor',0.59999999999999998,0.80000000000000004,0.90000000000000002);
#346=IFCSURFACESTYLESHADING(#345,0.5);
#347=IFCSURFACESTYLE('MaterialStyle',.BOTH.,(#346));
#348=IFCSTYLEDITEM(#337,(#347),$);
#349=IFCRAILING('1cRGQ6ROT2qg4c15gPqNSf',$,'Balcony Left Rail',$,$,#366,#361,$,$);
#350=IFCCARTESIANPOINT((0.,0.));
#351=IFCCARTESIANPOINT((1.5,0.));
#352=IFCCARTESIANPOINT((1.5,0.050000000000000003));
#353=IFCCARTESIANPOINT((0.,0.050000000000000003));
#354=IFCPOLYLINE((#350,#351,#352,#353,#350));
#355=IFCARBITRARYCLOSEDPROFILEDEF(.AREA.,$,#354);
#356=IFCDIRECTION((0.,0.,1.));
#357=IFCCARTESIANPOINT((0.,0.,0.));
#358=IFCAXIS2PLACEMENT3D(#357,$,$);
#359=IFCEXTRUDEDAREASOLID(#355,#358,#356,1.1000000000000001);
#360=IFCSHAPEREPRESENTATION(#11,'Body','SweptSolid',(#359));
#361=IFCPRODUCTDEFINITIONSHAPE($,$,(#360));
#362=IFCCARTESIANPOINT((-1.5,2.,0.));
#363=IFCDIRECTION((0.,0.,1.));
#364=IFCDIRECTION((1.,0.,0.));
#365=IFCAXIS2PLACEMENT3D(#362,#363,#364);
#366=IFCLOCALPLACEMENT($,#365);
#367=IFCCOLOURRGB('SurfaceColor',0.59999999999999998,0.80000000000000004,0.90000000000000002);
#368=IFCSURFACESTYLESHADING(#367,0.5);
#369=IFCSURFACESTYLE('MaterialStyle',.BOTH.,(#368));
#370=IFCSTYLEDITEM(#359,(#369),$);
#371=IFCRAILING('0BhXPv3GbDFfVSc4kegHxI',$,'Balcony Right Rail',$,$,#388,#383,$,$);
#372=IFCCARTESIANPOINT((0.,0.));
#373=IFCCARTESIANPOINT((1.5,0.));
#374=IFCCARTESIANPOINT((1.5,0.050000000000000003));
#375=IFCCARTESIANPOINT((0.,0.050000000000000003));
#376=IFCPOLYLINE((#372,#373,#374,#375,#372));
#377=IFCARBITRARYCLOSEDPROFILEDEF(.AREA.,$,#376);
#378=IFCDIRECTION((0.,0.,1.));
#379=IFCCARTESIANPOINT((0.,0.,0.));
#380=IFCAXIS2PLACEMENT3D(#379,$,$);
#381=IFCEXTRUDEDAREASOLID(#377,#380,#378,1.1000000000000001);
#382=IFCSHAPEREPRESENTATION(#11,'Body','SweptSolid',(#381));
#383=IFCPRODUCTDEFINITIONSHAPE($,$,(#382));
#384=IFCCARTESIANPOINT((-1.5,5.5,0.));
#385=IFCDIRECTION((0.,0.,1.));
#386=IFCDIRECTION((1.,0.,0.));
#387=IFCAXIS2PLACEMENT3D(#384,#385,#386);
#388=IFCLOCALPLACEMENT($,#387);
#389=IFCCOLOURRGB('SurfaceColor',0.59999999999999998,0.80000000000000004,0.90000000000000002);
#390=IFCSURFACESTYLESHADING(#389,0.5);
#391=IFCSURFACESTYLE('MaterialStyle',.BOTH.,(#390));
#392=IFCSTYLEDITEM(#381,(#391),$);
#393=IFCOPENINGELEMENT($,$,'Void for Main Entrance Door',$,$,#410,#405,$,$);
#394=IFCCARTESIANPOINT((0.,0.));
#395=IFCCARTESIANPOINT((1.,0.));
#396=IFCCARTESIANPOINT((1.,0.23000000000000001));
#397=IFCCARTESIANPOINT((0.,0.23000000000000001));
#398=IFCPOLYLINE((#394,#395,#396,#397,#394));
#399=IFCARBITRARYCLOSEDPROFILEDEF(.AREA.,$,#398);
#400=IFCDIRECTION((0.,0.,1.));
#401=IFCCARTESIANPOINT((0.,0.,0.));
#402=IFCAXIS2PLACEMENT3D(#401,$,$);
#403=IFCEXTRUDEDAREASOLID(#399,#402,#400,2.1000000000000001);
#404=IFCSHAPEREPRESENTATION(#11,'Body','SweptSolid',(#403));
#405=IFCPRODUCTDEFINITIONSHAPE($,$,(#404));
#406=IFCCARTESIANPOINT((1.5,0.,0.));
#407=IFCDIRECTION((0.,0.,1.));
#408=IFCDIRECTION((1.,0.,0.));
#409=IFCAXIS2PLACEMENT3D(#406,#407,#408);
#410=IFCLOCALPLACEMENT($,#409);
#411=IFCRELVOIDSELEMENT($,$,$,$,#41,#393);
#412=IFCDOOR('2l2z7hpQP3Z8kJ3SACfBye',$,'Main Entrance Door',$,$,#429,#424,$,$,$,$,$,$);
#413=IFCCARTESIANPOINT((0.,0.));
#414=IFCCARTESIANPOINT((1.,0.));
#415=IFCCARTESIANPOINT((1.,0.23000000000000001));
#416=IFCCARTESIANPOINT((0.,0.23000000000000001));
#417=IFCPOLYLINE((#413,#414,#415,#416,#413));
#418=IFCARBITRARYCLOSEDPROFILEDEF(.AREA.,$,#417);
#419=IFCDIRECTION((0.,0.,1.));
#420=IFCCARTESIANPOINT((0.,0.,0.));
#421=IFCAXIS2PLACEMENT3D(#420,$,$);
#422=IFCEXTRUDEDAREASOLID(#418,#421,#419,2.1000000000000001);
#423=IFCSHAPEREPRESENTATION(#11,'Body','SweptSolid',(#422));
#424=IFCPRODUCTDEFINITIONSHAPE($,$,(#423));
#425=IFCCARTESIANPOINT((1.5,0.,0.));
#426=IFCDIRECTION((0.,0.,1.));
#427=IFCDIRECTION((1.,0.,0.));
#428=IFCAXIS2PLACEMENT3D(#425,#426,#427);
#429=IFCLOCALPLACEMENT($,#428);
#430=IFCCOLOURRGB('SurfaceColor',0.40000000000000002,0.20000000000000001,0.10000000000000001);
#431=IFCSURFACESTYLESHADING(#430,0.);
#432=IFCSURFACESTYLE('MaterialStyle',.BOTH.,(#431));
#433=IFCSTYLEDITEM(#422,(#432),$);
#434=IFCRELFILLSELEMENT($,$,$,$,#393,#412);
#435=IFCOPENINGELEMENT($,$,'Void for Balcony Glass Slider Door',$,$,#452,#447,$,$);
#436=IFCCARTESIANPOINT((0.,0.));
#437=IFCCARTESIANPOINT((0.23000000000000001,0.));
#438=IFCCARTESIANPOINT((0.23000000000000001,2.));
#439=IFCCARTESIANPOINT((0.,2.));
#440=IFCPOLYLINE((#436,#437,#438,#439,#436));
#441=IFCARBITRARYCLOSEDPROFILEDEF(.AREA.,$,#440);
#442=IFCDIRECTION((0.,0.,1.));
#443=IFCCARTESIANPOINT((0.,0.,0.));
#444=IFCAXIS2PLACEMENT3D(#443,$,$);
#445=IFCEXTRUDEDAREASOLID(#441,#444,#442,2.3999999999999999);
#446=IFCSHAPEREPRESENTATION(#11,'Body','SweptSolid',(#445));
#447=IFCPRODUCTDEFINITIONSHAPE($,$,(#446));
#448=IFCCARTESIANPOINT((0.,2.7000000000000002,0.));
#449=IFCDIRECTION((0.,0.,1.));
#450=IFCDIRECTION((1.,0.,0.));
#451=IFCAXIS2PLACEMENT3D(#448,#449,#450);
#452=IFCLOCALPLACEMENT($,#451);
#453=IFCRELVOIDSELEMENT($,$,$,$,#85,#435);
#454=IFCDOOR('3X6Z3e7XXDVvOEnM9KySRK',$,'Balcony Glass Slider Door',$,$,#471,#466,$,$,$,$,$,$);
#455=IFCCARTESIANPOINT((0.,0.));
#456=IFCCARTESIANPOINT((0.23000000000000001,0.));
#457=IFCCARTESIANPOINT((0.23000000000000001,2.));
#458=IFCCARTESIANPOINT((0.,2.));
#459=IFCPOLYLINE((#455,#456,#457,#458,#455));
#460=IFCARBITRARYCLOSEDPROFILEDEF(.AREA.,$,#459);
#461=IFCDIRECTION((0.,0.,1.));
#462=IFCCARTESIANPOINT((0.,0.,0.));
#463=IFCAXIS2PLACEMENT3D(#462,$,$);
#464=IFCEXTRUDEDAREASOLID(#460,#463,#461,2.3999999999999999);
#465=IFCSHAPEREPRESENTATION(#11,'Body','SweptSolid',(#464));
#466=IFCPRODUCTDEFINITIONSHAPE($,$,(#465));
#467=IFCCARTESIANPOINT((0.,2.7000000000000002,0.));
#468=IFCDIRECTION((0.,0.,1.));
#469=IFCDIRECTION((1.,0.,0.));
#470=IFCAXIS2PLACEMENT3D(#467,#468,#469);
#471=IFCLOCALPLACEMENT($,#470);
#472=IFCCOLOURRGB('SurfaceColor',0.5,0.80000000000000004,0.90000000000000002);
#473=IFCSURFACESTYLESHADING(#472,0.69999999999999996);
#474=IFCSURFACESTYLE('MaterialStyle',.BOTH.,(#473));
#475=IFCSTYLEDITEM(#464,(#474),$);
#476=IFCRELFILLSELEMENT($,$,$,$,#435,#454);
#477=IFCOPENINGELEMENT($,$,'Void for Master Bed Door',$,$,#494,#489,$,$);
#478=IFCCARTESIANPOINT((0.,0.));
#479=IFCCARTESIANPOINT((0.90000000000000002,0.));
#480=IFCCARTESIANPOINT((0.90000000000000002,0.11));
#481=IFCCARTESIANPOINT((0.,0.11));
#482=IFCPOLYLINE((#478,#479,#480,#481,#478));
#483=IFCARBITRARYCLOSEDPROFILEDEF(.AREA.,$,#482);
#484=IFCDIRECTION((0.,0.,1.));
#485=IFCCARTESIANPOINT((0.,0.,0.));
#486=IFCAXIS2PLACEMENT3D(#485,$,$);
#487=IFCEXTRUDEDAREASOLID(#483,#486,#484,2.1000000000000001);
#488=IFCSHAPEREPRESENTATION(#11,'Body','SweptSolid',(#487));
#489=IFCPRODUCTDEFINITIONSHAPE($,$,(#488));
#490=IFCCARTESIANPOINT((0.5,6.7000000000000002,0.));
#491=IFCDIRECTION((0.,0.,1.));
#492=IFCDIRECTION((1.,0.,0.));
#493=IFCAXIS2PLACEMENT3D(#490,#491,#492);
#494=IFCLOCALPLACEMENT($,#493);
#495=IFCRELVOIDSELEMENT($,$,$,$,#151,#477);
#496=IFCDOOR('1YepoiIC99VhtkR6EfO2n5',$,'Master Bed Door',$,$,#513,#508,$,$,$,$,$,$);
#497=IFCCARTESIANPOINT((0.,0.));
#498=IFCCARTESIANPOINT((0.90000000000000002,0.));
#499=IFCCARTESIANPOINT((0.90000000000000002,0.11));
#500=IFCCARTESIANPOINT((0.,0.11));
#501=IFCPOLYLINE((#497,#498,#499,#500,#497));
#502=IFCARBITRARYCLOSEDPROFILEDEF(.AREA.,$,#501);
#503=IFCDIRECTION((0.,0.,1.));
#504=IFCCARTESIANPOINT((0.,0.,0.));
#505=IFCAXIS2PLACEMENT3D(#504,$,$);
#506=IFCEXTRUDEDAREASOLID(#502,#505,#503,2.1000000000000001);
#507=IFCSHAPEREPRESENTATION(#11,'Body','SweptSolid',(#506));
#508=IFCPRODUCTDEFINITIONSHAPE($,$,(#507));
#509=IFCCARTESIANPOINT((0.5,6.7000000000000002,0.));
#510=IFCDIRECTION((0.,0.,1.));
#511=IFCDIRECTION((1.,0.,0.));
#512=IFCAXIS2PLACEMENT3D(#509,#510,#511);
#513=IFCLOCALPLACEMENT($,#512);
#514=IFCCOLOURRGB('SurfaceColor',0.5,0.29999999999999999,0.20000000000000001);
#515=IFCSURFACESTYLESHADING(#514,0.);
#516=IFCSURFACESTYLE('MaterialStyle',.BOTH.,(#515));
#517=IFCSTYLEDITEM(#506,(#516),$);
#518=IFCRELFILLSELEMENT($,$,$,$,#477,#496);
#519=IFCOPENINGELEMENT($,$,'Void for Bedroom 2 Door',$,$,#536,#531,$,$);
#520=IFCCARTESIANPOINT((0.,0.));
#521=IFCCARTESIANPOINT((0.90000000000000002,0.));
#522=IFCCARTESIANPOINT((0.90000000000000002,0.11));
#523=IFCCARTESIANPOINT((0.,0.11));
#524=IFCPOLYLINE((#520,#521,#522,#523,#520));
#525=IFCARBITRARYCLOSEDPROFILEDEF(.AREA.,$,#524);
#526=IFCDIRECTION((0.,0.,1.));
#527=IFCCARTESIANPOINT((0.,0.,0.));
#528=IFCAXIS2PLACEMENT3D(#527,$,$);
#529=IFCEXTRUDEDAREASOLID(#525,#528,#526,2.1000000000000001);
#530=IFCSHAPEREPRESENTATION(#11,'Body','SweptSolid',(#529));
#531=IFCPRODUCTDEFINITIONSHAPE($,$,(#530));
#532=IFCCARTESIANPOINT((4.2000000000000002,6.7000000000000002,0.));
#533=IFCDIRECTION((0.,0.,1.));
#534=IFCDIRECTION((1.,0.,0.));
#535=IFCAXIS2PLACEMENT3D(#532,#533,#534);
#536=IFCLOCALPLACEMENT($,#535);
#537=IFCRELVOIDSELEMENT($,$,$,$,#151,#519);
#538=IFCDOOR('0GW8pka2jFVeukHC3ySQT3',$,'Bedroom 2 Door',$,$,#555,#550,$,$,$,$,$,$);
#539=IFCCARTESIANPOINT((0.,0.));
#540=IFCCARTESIANPOINT((0.90000000000000002,0.));
#541=IFCCARTESIANPOINT((0.90000000000000002,0.11));
#542=IFCCARTESIANPOINT((0.,0.11));
#543=IFCPOLYLINE((#539,#540,#541,#542,#539));
#544=IFCARBITRARYCLOSEDPROFILEDEF(.AREA.,$,#543);
#545=IFCDIRECTION((0.,0.,1.));
#546=IFCCARTESIANPOINT((0.,0.,0.));
#547=IFCAXIS2PLACEMENT3D(#546,$,$);
#548=IFCEXTRUDEDAREASOLID(#544,#547,#545,2.1000000000000001);
#549=IFCSHAPEREPRESENTATION(#11,'Body','SweptSolid',(#548));
#550=IFCPRODUCTDEFINITIONSHAPE($,$,(#549));
#551=IFCCARTESIANPOINT((4.2000000000000002,6.7000000000000002,0.));
#552=IFCDIRECTION((0.,0.,1.));
#553=IFCDIRECTION((1.,0.,0.));
#554=IFCAXIS2PLACEMENT3D(#551,#552,#553);
#555=IFCLOCALPLACEMENT($,#554);
#556=IFCCOLOURRGB('SurfaceColor',0.5,0.29999999999999999,0.20000000000000001);
#557=IFCSURFACESTYLESHADING(#556,0.);
#558=IFCSURFACESTYLE('MaterialStyle',.BOTH.,(#557));
#559=IFCSTYLEDITEM(#548,(#558),$);
#560=IFCRELFILLSELEMENT($,$,$,$,#519,#538);
#561=IFCOPENINGELEMENT($,$,'Void for Bedroom 3 Corridor Door',$,$,#578,#573,$,$);
#562=IFCCARTESIANPOINT((0.,0.));
#563=IFCCARTESIANPOINT((0.90000000000000002,0.));
#564=IFCCARTESIANPOINT((0.90000000000000002,0.11));
#565=IFCCARTESIANPOINT((0.,0.11));
#566=IFCPOLYLINE((#562,#563,#564,#565,#562));
#567=IFCARBITRARYCLOSEDPROFILEDEF(.AREA.,$,#566);
#568=IFCDIRECTION((0.,0.,1.));
#569=IFCCARTESIANPOINT((0.,0.,0.));
#570=IFCAXIS2PLACEMENT3D(#569,$,$);
#571=IFCEXTRUDEDAREASOLID(#567,#570,#568,2.1000000000000001);
#572=IFCSHAPEREPRESENTATION(#11,'Body','SweptSolid',(#571));
#573=IFCPRODUCTDEFINITIONSHAPE($,$,(#572));
#574=IFCCARTESIANPOINT((7.2999999999999998,6.7000000000000002,0.));
#575=IFCDIRECTION((0.,0.,1.));
#576=IFCDIRECTION((1.,0.,0.));
#577=IFCAXIS2PLACEMENT3D(#574,#575,#576);
#578=IFCLOCALPLACEMENT($,#577);
#579=IFCRELVOIDSELEMENT($,$,$,$,#151,#561);
#580=IFCDOOR('0Ox$z5gE9AahD4JI6k3x0z',$,'Bedroom 3 Corridor Door',$,$,#597,#592,$,$,$,$,$,$);
#581=IFCCARTESIANPOINT((0.,0.));
#582=IFCCARTESIANPOINT((0.90000000000000002,0.));
#583=IFCCARTESIANPOINT((0.90000000000000002,0.11));
#584=IFCCARTESIANPOINT((0.,0.11));
#585=IFCPOLYLINE((#581,#582,#583,#584,#581));
#586=IFCARBITRARYCLOSEDPROFILEDEF(.AREA.,$,#585);
#587=IFCDIRECTION((0.,0.,1.));
#588=IFCCARTESIANPOINT((0.,0.,0.));
#589=IFCAXIS2PLACEMENT3D(#588,$,$);
#590=IFCEXTRUDEDAREASOLID(#586,#589,#587,2.1000000000000001);
#591=IFCSHAPEREPRESENTATION(#11,'Body','SweptSolid',(#590));
#592=IFCPRODUCTDEFINITIONSHAPE($,$,(#591));
#593=IFCCARTESIANPOINT((7.2999999999999998,6.7000000000000002,0.));
#594=IFCDIRECTION((0.,0.,1.));
#595=IFCDIRECTION((1.,0.,0.));
#596=IFCAXIS2PLACEMENT3D(#593,#594,#595);
#597=IFCLOCALPLACEMENT($,#596);
#598=IFCCOLOURRGB('SurfaceColor',0.5,0.29999999999999999,0.20000000000000001);
#599=IFCSURFACESTYLESHADING(#598,0.);
#600=IFCSURFACESTYLE('MaterialStyle',.BOTH.,(#599));
#601=IFCSTYLEDITEM(#590,(#600),$);
#602=IFCRELFILLSELEMENT($,$,$,$,#561,#580);
#603=IFCOPENINGELEMENT($,$,'Void for Master Bath En-suite Door',$,$,#620,#615,$,$);
#604=IFCCARTESIANPOINT((0.,0.));
#605=IFCCARTESIANPOINT((0.80000000000000004,0.));
#606=IFCCARTESIANPOINT((0.80000000000000004,0.11));
#607=IFCCARTESIANPOINT((0.,0.11));
#608=IFCPOLYLINE((#604,#605,#606,#607,#604));
#609=IFCARBITRARYCLOSEDPROFILEDEF(.AREA.,$,#608);
#610=IFCDIRECTION((0.,0.,1.));
#611=IFCCARTESIANPOINT((0.,0.,0.));
#612=IFCAXIS2PLACEMENT3D(#611,$,$);
#613=IFCEXTRUDEDAREASOLID(#609,#612,#610,2.);
#614=IFCSHAPEREPRESENTATION(#11,'Body','SweptSolid',(#613));
#615=IFCPRODUCTDEFINITIONSHAPE($,$,(#614));
#616=IFCCARTESIANPOINT((0.80000000000000004,11.07,0.));
#617=IFCDIRECTION((0.,0.,1.));
#618=IFCDIRECTION((1.,0.,0.));
#619=IFCAXIS2PLACEMENT3D(#616,#617,#618);
#620=IFCLOCALPLACEMENT($,#619);
#621=IFCRELVOIDSELEMENT($,$,$,$,#239,#603);
#622=IFCDOOR('1ynmOXBefBgAHAvtpvJ7s$',$,'Master Bath En-suite Door',$,$,#639,#634,$,$,$,$,$,$);
#623=IFCCARTESIANPOINT((0.,0.));
#624=IFCCARTESIANPOINT((0.80000000000000004,0.));
#625=IFCCARTESIANPOINT((0.80000000000000004,0.11));
#626=IFCCARTESIANPOINT((0.,0.11));
#627=IFCPOLYLINE((#623,#624,#625,#626,#623));
#628=IFCARBITRARYCLOSEDPROFILEDEF(.AREA.,$,#627);
#629=IFCDIRECTION((0.,0.,1.));
#630=IFCCARTESIANPOINT((0.,0.,0.));
#631=IFCAXIS2PLACEMENT3D(#630,$,$);
#632=IFCEXTRUDEDAREASOLID(#628,#631,#629,2.);
#633=IFCSHAPEREPRESENTATION(#11,'Body','SweptSolid',(#632));
#634=IFCPRODUCTDEFINITIONSHAPE($,$,(#633));
#635=IFCCARTESIANPOINT((0.80000000000000004,11.07,0.));
#636=IFCDIRECTION((0.,0.,1.));
#637=IFCDIRECTION((1.,0.,0.));
#638=IFCAXIS2PLACEMENT3D(#635,#636,#637);
#639=IFCLOCALPLACEMENT($,#638);
#640=IFCCOLOURRGB('SurfaceColor',0.59999999999999998,0.40000000000000002,0.29999999999999999);
#641=IFCSURFACESTYLESHADING(#640,0.);
#642=IFCSURFACESTYLE('MaterialStyle',.BOTH.,(#641));
#643=IFCSTYLEDITEM(#632,(#642),$);
#644=IFCRELFILLSELEMENT($,$,$,$,#603,#622);
#645=IFCOPENINGELEMENT($,$,'Void for Common Bathroom Access Door',$,$,#662,#657,$,$);
#646=IFCCARTESIANPOINT((0.,0.));
#647=IFCCARTESIANPOINT((0.80000000000000004,0.));
#648=IFCCARTESIANPOINT((0.80000000000000004,0.11));
#649=IFCCARTESIANPOINT((0.,0.11));
#650=IFCPOLYLINE((#646,#647,#648,#649,#646));
#651=IFCARBITRARYCLOSEDPROFILEDEF(.AREA.,$,#650);
#652=IFCDIRECTION((0.,0.,1.));
#653=IFCCARTESIANPOINT((0.,0.,0.));
#654=IFCAXIS2PLACEMENT3D(#653,$,$);
#655=IFCEXTRUDEDAREASOLID(#651,#654,#652,2.);
#656=IFCSHAPEREPRESENTATION(#11,'Body','SweptSolid',(#655));
#657=IFCPRODUCTDEFINITIONSHAPE($,$,(#656));
#658=IFCCARTESIANPOINT((8.5,2.6299999999999999,0.));
#659=IFCDIRECTION((0.,0.,1.));
#660=IFCDIRECTION((1.,0.,0.));
#661=IFCAXIS2PLACEMENT3D(#658,#659,#660);
#662=IFCLOCALPLACEMENT($,#661);
#663=IFCRELVOIDSELEMENT($,$,$,$,#283,#645);
#664=IFCDOOR('18ltFOThHEEx7oFqPrqz6x',$,'Common Bathroom Access Door',$,$,#681,#676,$,$,$,$,$,$);
#665=IFCCARTESIANPOINT((0.,0.));
#666=IFCCARTESIANPOINT((0.80000000000000004,0.));
#667=IFCCARTESIANPOINT((0.80000000000000004,0.11));
#668=IFCCARTESIANPOINT((0.,0.11));
#669=IFCPOLYLINE((#665,#666,#667,#668,#665));
#670=IFCARBITRARYCLOSEDPROFILEDEF(.AREA.,$,#669);
#671=IFCDIRECTION((0.,0.,1.));
#672=IFCCARTESIANPOINT((0.,0.,0.));
#673=IFCAXIS2PLACEMENT3D(#672,$,$);
#674=IFCEXTRUDEDAREASOLID(#670,#673,#671,2.);
#675=IFCSHAPEREPRESENTATION(#11,'Body','SweptSolid',(#674));
#676=IFCPRODUCTDEFINITIONSHAPE($,$,(#675));
#677=IFCCARTESIANPOINT((8.5,2.6299999999999999,0.));
#678=IFCDIRECTION((0.,0.,1.));
#679=IFCDIRECTION((1.,0.,0.));
#680=IFCAXIS2PLACEMENT3D(#677,#678,#679);
#681=IFCLOCALPLACEMENT($,#680);
#682=IFCCOLOURRGB('SurfaceColor',0.59999999999999998,0.40000000000000002,0.29999999999999999);
#683=IFCSURFACESTYLESHADING(#682,0.);
#684=IFCSURFACESTYLE('MaterialStyle',.BOTH.,(#683));
#685=IFCSTYLEDITEM(#674,(#684),$);
#686=IFCRELFILLSELEMENT($,$,$,$,#645,#664);
#687=IFCOPENINGELEMENT($,$,'Void for Master Washroom Ventilation Window',$,$,#704,#699,$,$);
#688=IFCCARTESIANPOINT((0.,0.));
#689=IFCCARTESIANPOINT((0.59999999999999998,0.));
#690=IFCCARTESIANPOINT((0.59999999999999998,0.23000000000000001));
#691=IFCCARTESIANPOINT((0.,0.23000000000000001));
#692=IFCPOLYLINE((#688,#689,#690,#691,#688));
#693=IFCARBITRARYCLOSEDPROFILEDEF(.AREA.,$,#692);
#694=IFCDIRECTION((0.,0.,1.));
#695=IFCCARTESIANPOINT((0.,0.,0.));
#696=IFCAXIS2PLACEMENT3D(#695,$,$);
#697=IFCEXTRUDEDAREASOLID(#693,#696,#694,0.59999999999999998);
#698=IFCSHAPEREPRESENTATION(#11,'Body','SweptSolid',(#697));
#699=IFCPRODUCTDEFINITIONSHAPE($,$,(#698));
#700=IFCCARTESIANPOINT((0.80000000000000004,13.470000000000001,1.8));
#701=IFCDIRECTION((0.,0.,1.));
#702=IFCDIRECTION((1.,0.,0.));
#703=IFCAXIS2PLACEMENT3D(#700,#701,#702);
#704=IFCLOCALPLACEMENT($,#703);
#705=IFCRELVOIDSELEMENT($,$,$,$,#63,#687);
#706=IFCWINDOW('1doaNNiVX3Zwk$QBPL9uwc',$,'Master Washroom Ventilation Window',$,$,#723,#718,$,$,$,$,$,$);
#707=IFCCARTESIANPOINT((0.,0.));
#708=IFCCARTESIANPOINT((0.59999999999999998,0.));
#709=IFCCARTESIANPOINT((0.59999999999999998,0.23000000000000001));
#710=IFCCARTESIANPOINT((0.,0.23000000000000001));
#711=IFCPOLYLINE((#707,#708,#709,#710,#707));
#712=IFCARBITRARYCLOSEDPROFILEDEF(.AREA.,$,#711);
#713=IFCDIRECTION((0.,0.,1.));
#714=IFCCARTESIANPOINT((0.,0.,0.));
#715=IFCAXIS2PLACEMENT3D(#714,$,$);
#716=IFCEXTRUDEDAREASOLID(#712,#715,#713,0.59999999999999998);
#717=IFCSHAPEREPRESENTATION(#11,'Body','SweptSolid',(#716));
#718=IFCPRODUCTDEFINITIONSHAPE($,$,(#717));
#719=IFCCARTESIANPOINT((0.80000000000000004,13.470000000000001,1.8));
#720=IFCDIRECTION((0.,0.,1.));
#721=IFCDIRECTION((1.,0.,0.));
#722=IFCAXIS2PLACEMENT3D(#719,#720,#721);
#723=IFCLOCALPLACEMENT($,#722);
#724=IFCCOLOURRGB('SurfaceColor',0.69999999999999996,0.90000000000000002,1.);
#725=IFCSURFACESTYLESHADING(#724,0.5);
#726=IFCSURFACESTYLE('MaterialStyle',.BOTH.,(#725));
#727=IFCSTYLEDITEM(#716,(#726),$);
#728=IFCRELFILLSELEMENT($,$,$,$,#687,#706);
#729=IFCOPENINGELEMENT($,$,'Void for Master Bed Main Window',$,$,#746,#741,$,$);
#730=IFCCARTESIANPOINT((0.,0.));
#731=IFCCARTESIANPOINT((1.2,0.));
#732=IFCCARTESIANPOINT((1.2,0.23000000000000001));
#733=IFCCARTESIANPOINT((0.,0.23000000000000001));
#734=IFCPOLYLINE((#730,#731,#732,#733,#730));
#735=IFCARBITRARYCLOSEDPROFILEDEF(.AREA.,$,#734);
#736=IFCDIRECTION((0.,0.,1.));
#737=IFCCARTESIANPOINT((0.,0.,0.));
#738=IFCAXIS2PLACEMENT3D(#737,$,$);
#739=IFCEXTRUDEDAREASOLID(#735,#738,#736,1.2);
#740=IFCSHAPEREPRESENTATION(#11,'Body','SweptSolid',(#739));
#741=IFCPRODUCTDEFINITIONSHAPE($,$,(#740));
#742=IFCCARTESIANPOINT((2.5,13.470000000000001,1.));
#743=IFCDIRECTION((0.,0.,1.));
#744=IFCDIRECTION((1.,0.,0.));
#745=IFCAXIS2PLACEMENT3D(#742,#743,#744);
#746=IFCLOCALPLACEMENT($,#745);
#747=IFCRELVOIDSELEMENT($,$,$,$,#63,#729);
#748=IFCWINDOW('2FPxDdrgH7VRo$rLSV$ckJ',$,'Master Bed Main Window',$,$,#765,#760,$,$,$,$,$,$);
#749=IFCCARTESIANPOINT((0.,0.));
#750=IFCCARTESIANPOINT((1.2,0.));
#751=IFCCARTESIANPOINT((1.2,0.23000000000000001));
#752=IFCCARTESIANPOINT((0.,0.23000000000000001));
#753=IFCPOLYLINE((#749,#750,#751,#752,#749));
#754=IFCARBITRARYCLOSEDPROFILEDEF(.AREA.,$,#753);
#755=IFCDIRECTION((0.,0.,1.));
#756=IFCCARTESIANPOINT((0.,0.,0.));
#757=IFCAXIS2PLACEMENT3D(#756,$,$);
#758=IFCEXTRUDEDAREASOLID(#754,#757,#755,1.2);
#759=IFCSHAPEREPRESENTATION(#11,'Body','SweptSolid',(#758));
#760=IFCPRODUCTDEFINITIONSHAPE($,$,(#759));
#761=IFCCARTESIANPOINT((2.5,13.470000000000001,1.));
#762=IFCDIRECTION((0.,0.,1.));
#763=IFCDIRECTION((1.,0.,0.));
#764=IFCAXIS2PLACEMENT3D(#761,#762,#763);
#765=IFCLOCALPLACEMENT($,#764);
#766=IFCCOLOURRGB('SurfaceColor',0.69999999999999996,0.90000000000000002,1.);
#767=IFCSURFACESTYLESHADING(#766,0.5);
#768=IFCSURFACESTYLE('MaterialStyle',.BOTH.,(#767));
#769=IFCSTYLEDITEM(#758,(#768),$);
#770=IFCRELFILLSELEMENT($,$,$,$,#729,#748);
#771=IFCOPENINGELEMENT($,$,'Void for Bedroom 2 Window',$,$,#788,#783,$,$);
#772=IFCCARTESIANPOINT((0.,0.));
#773=IFCCARTESIANPOINT((1.2,0.));
#774=IFCCARTESIANPOINT((1.2,0.23000000000000001));
#775=IFCCARTESIANPOINT((0.,0.23000000000000001));
#776=IFCPOLYLINE((#772,#773,#774,#775,#772));
#777=IFCARBITRARYCLOSEDPROFILEDEF(.AREA.,$,#776);
#778=IFCDIRECTION((0.,0.,1.));
#779=IFCCARTESIANPOINT((0.,0.,0.));
#780=IFCAXIS2PLACEMENT3D(#779,$,$);
#781=IFCEXTRUDEDAREASOLID(#777,#780,#778,1.2);
#782=IFCSHAPEREPRESENTATION(#11,'Body','SweptSolid',(#781));
#783=IFCPRODUCTDEFINITIONSHAPE($,$,(#782));
#784=IFCCARTESIANPOINT((5.,13.470000000000001,1.));
#785=IFCDIRECTION((0.,0.,1.));
#786=IFCDIRECTION((1.,0.,0.));
#787=IFCAXIS2PLACEMENT3D(#784,#785,#786);
#788=IFCLOCALPLACEMENT($,#787);
#789=IFCRELVOIDSELEMENT($,$,$,$,#63,#771);
#790=IFCWINDOW('3Mw8U8MfrA6gRkTLOX01TY',$,'Bedroom 2 Window',$,$,#807,#802,$,$,$,$,$,$);
#791=IFCCARTESIANPOINT((0.,0.));
#792=IFCCARTESIANPOINT((1.2,0.));
#793=IFCCARTESIANPOINT((1.2,0.23000000000000001));
#794=IFCCARTESIANPOINT((0.,0.23000000000000001));
#795=IFCPOLYLINE((#791,#792,#793,#794,#791));
#796=IFCARBITRARYCLOSEDPROFILEDEF(.AREA.,$,#795);
#797=IFCDIRECTION((0.,0.,1.));
#798=IFCCARTESIANPOINT((0.,0.,0.));
#799=IFCAXIS2PLACEMENT3D(#798,$,$);
#800=IFCEXTRUDEDAREASOLID(#796,#799,#797,1.2);
#801=IFCSHAPEREPRESENTATION(#11,'Body','SweptSolid',(#800));
#802=IFCPRODUCTDEFINITIONSHAPE($,$,(#801));
#803=IFCCARTESIANPOINT((5.,13.470000000000001,1.));
#804=IFCDIRECTION((0.,0.,1.));
#805=IFCDIRECTION((1.,0.,0.));
#806=IFCAXIS2PLACEMENT3D(#803,#804,#805);
#807=IFCLOCALPLACEMENT($,#806);
#808=IFCCOLOURRGB('SurfaceColor',0.69999999999999996,0.90000000000000002,1.);
#809=IFCSURFACESTYLESHADING(#808,0.5);
#810=IFCSURFACESTYLE('MaterialStyle',.BOTH.,(#809));
#811=IFCSTYLEDITEM(#800,(#810),$);
#812=IFCRELFILLSELEMENT($,$,$,$,#771,#790);
#813=IFCOPENINGELEMENT($,$,'Void for Bedroom 3 Window',$,$,#830,#825,$,$);
#814=IFCCARTESIANPOINT((0.,0.));
#815=IFCCARTESIANPOINT((1.2,0.));
#816=IFCCARTESIANPOINT((1.2,0.23000000000000001));
#817=IFCCARTESIANPOINT((0.,0.23000000000000001));
#818=IFCPOLYLINE((#814,#815,#816,#817,#814));
#819=IFCARBITRARYCLOSEDPROFILEDEF(.AREA.,$,#818);
#820=IFCDIRECTION((0.,0.,1.));
#821=IFCCARTESIANPOINT((0.,0.,0.));
#822=IFCAXIS2PLACEMENT3D(#821,$,$);
#823=IFCEXTRUDEDAREASOLID(#819,#822,#820,1.2);
#824=IFCSHAPEREPRESENTATION(#11,'Body','SweptSolid',(#823));
#825=IFCPRODUCTDEFINITIONSHAPE($,$,(#824));
#826=IFCCARTESIANPOINT((8.1999999999999993,13.470000000000001,1.));
#827=IFCDIRECTION((0.,0.,1.));
#828=IFCDIRECTION((1.,0.,0.));
#829=IFCAXIS2PLACEMENT3D(#826,#827,#828);
#830=IFCLOCALPLACEMENT($,#829);
#831=IFCRELVOIDSELEMENT($,$,$,$,#63,#813);
#832=IFCWINDOW('1cN2PDvDLE2vmFjTslWF$E',$,'Bedroom 3 Window',$,$,#849,#844,$,$,$,$,$,$);
#833=IFCCARTESIANPOINT((0.,0.));
#834=IFCCARTESIANPOINT((1.2,0.));
#835=IFCCARTESIANPOINT((1.2,0.23000000000000001));
#836=IFCCARTESIANPOINT((0.,0.23000000000000001));
#837=IFCPOLYLINE((#833,#834,#835,#836,#833));
#838=IFCARBITRARYCLOSEDPROFILEDEF(.AREA.,$,#837);
#839=IFCDIRECTION((0.,0.,1.));
#840=IFCCARTESIANPOINT((0.,0.,0.));
#841=IFCAXIS2PLACEMENT3D(#840,$,$);
#842=IFCEXTRUDEDAREASOLID(#838,#841,#839,1.2);
#843=IFCSHAPEREPRESENTATION(#11,'Body','SweptSolid',(#842));
#844=IFCPRODUCTDEFINITIONSHAPE($,$,(#843));
#845=IFCCARTESIANPOINT((8.1999999999999993,13.470000000000001,1.));
#846=IFCDIRECTION((0.,0.,1.));
#847=IFCDIRECTION((1.,0.,0.));
#848=IFCAXIS2PLACEMENT3D(#845,#846,#847);
#849=IFCLOCALPLACEMENT($,#848);
#850=IFCCOLOURRGB('SurfaceColor',0.69999999999999996,0.90000000000000002,1.);
#851=IFCSURFACESTYLESHADING(#850,0.5);
#852=IFCSURFACESTYLE('MaterialStyle',.BOTH.,(#851));
#853=IFCSTYLEDITEM(#842,(#852),$);
#854=IFCRELFILLSELEMENT($,$,$,$,#813,#832);
#855=IFCFURNITURE('1zX_4DLDX2YxwFVkfdnFDx',$,'Master Bed Asset',$,$,#872,#867,$,$);
#856=IFCCARTESIANPOINT((0.,0.));
#857=IFCCARTESIANPOINT((2.,0.));
#858=IFCCARTESIANPOINT((2.,2.1000000000000001));
#859=IFCCARTESIANPOINT((0.,2.1000000000000001));
#860=IFCPOLYLINE((#856,#857,#858,#859,#856));
#861=IFCARBITRARYCLOSEDPROFILEDEF(.AREA.,$,#860);
#862=IFCDIRECTION((0.,0.,1.));
#863=IFCCARTESIANPOINT((0.,0.,0.));
#864=IFCAXIS2PLACEMENT3D(#863,$,$);
#865=IFCEXTRUDEDAREASOLID(#861,#864,#862,0.59999999999999998);
#866=IFCSHAPEREPRESENTATION(#11,'Body','SweptSolid',(#865));
#867=IFCPRODUCTDEFINITIONSHAPE($,$,(#866));
#868=IFCCARTESIANPOINT((0.80000000000000004,7.5,0.));
#869=IFCDIRECTION((0.,0.,1.));
#870=IFCDIRECTION((1.,0.,0.));
#871=IFCAXIS2PLACEMENT3D(#868,#869,#870);
#872=IFCLOCALPLACEMENT($,#871);
#873=IFCCOLOURRGB('SurfaceColor',0.10000000000000001,0.5,0.5);
#874=IFCSURFACESTYLESHADING(#873,0.);
#875=IFCSURFACESTYLE('MaterialStyle',.BOTH.,(#874));
#876=IFCSTYLEDITEM(#865,(#875),$);
#877=IFCFURNITURE('0tGtTaEXP8NfR2r7SpJyse',$,'Bed 2 Asset',$,$,#894,#889,$,$);
#878=IFCCARTESIANPOINT((0.,0.));
#879=IFCCARTESIANPOINT((1.8,0.));
#880=IFCCARTESIANPOINT((1.8,2.));
#881=IFCCARTESIANPOINT((0.,2.));
#882=IFCPOLYLINE((#878,#879,#880,#881,#878));
#883=IFCARBITRARYCLOSEDPROFILEDEF(.AREA.,$,#882);
#884=IFCDIRECTION((0.,0.,1.));
#885=IFCCARTESIANPOINT((0.,0.,0.));
#886=IFCAXIS2PLACEMENT3D(#885,$,$);
#887=IFCEXTRUDEDAREASOLID(#883,#886,#884,0.59999999999999998);
#888=IFCSHAPEREPRESENTATION(#11,'Body','SweptSolid',(#887));
#889=IFCPRODUCTDEFINITIONSHAPE($,$,(#888));
#890=IFCCARTESIANPOINT((4.4000000000000004,9.5,0.));
#891=IFCDIRECTION((0.,0.,1.));
#892=IFCDIRECTION((1.,0.,0.));
#893=IFCAXIS2PLACEMENT3D(#890,#891,#892);
#894=IFCLOCALPLACEMENT($,#893);
#895=IFCCOLOURRGB('SurfaceColor',0.10000000000000001,0.20000000000000001,0.5);
#896=IFCSURFACESTYLESHADING(#895,0.);
#897=IFCSURFACESTYLE('MaterialStyle',.BOTH.,(#896));
#898=IFCSTYLEDITEM(#887,(#897),$);
#899=IFCFURNITURE('1apTIzHUjA3xC0gD4I1p5v',$,'Study Desk Bed 3',$,$,#916,#911,$,$);
#900=IFCCARTESIANPOINT((0.,0.));
#901=IFCCARTESIANPOINT((1.8,0.));
#902=IFCCARTESIANPOINT((1.8,2.));
#903=IFCCARTESIANPOINT((0.,2.));
#904=IFCPOLYLINE((#900,#901,#902,#903,#900));
#905=IFCARBITRARYCLOSEDPROFILEDEF(.AREA.,$,#904);
#906=IFCDIRECTION((0.,0.,1.));
#907=IFCCARTESIANPOINT((0.,0.,0.));
#908=IFCAXIS2PLACEMENT3D(#907,$,$);
#909=IFCEXTRUDEDAREASOLID(#905,#908,#906,0.59999999999999998);
#910=IFCSHAPEREPRESENTATION(#11,'Body','SweptSolid',(#909));
#911=IFCPRODUCTDEFINITIONSHAPE($,$,(#910));
#912=IFCCARTESIANPOINT((7.5,9.5,0.));
#913=IFCDIRECTION((0.,0.,1.));
#914=IFCDIRECTION((1.,0.,0.));
#915=IFCAXIS2PLACEMENT3D(#912,#913,#914);
#916=IFCLOCALPLACEMENT($,#915);
#917=IFCCOLOURRGB('SurfaceColor',0.59999999999999998,0.40000000000000002,0.20000000000000001);
#918=IFCSURFACESTYLESHADING(#917,0.);
#919=IFCSURFACESTYLE('MaterialStyle',.BOTH.,(#918));
#920=IFCSTYLEDITEM(#909,(#919),$);
#921=IFCFURNITURE('2LxjHS2GH5Vgzi9QJLEnOX',$,'Lounge Sofa Main',$,$,#938,#933,$,$);
#922=IFCCARTESIANPOINT((0.,0.));
#923=IFCCARTESIANPOINT((2.7999999999999998,0.));
#924=IFCCARTESIANPOINT((2.7999999999999998,0.90000000000000002));
#925=IFCCARTESIANPOINT((0.,0.90000000000000002));
#926=IFCPOLYLINE((#922,#923,#924,#925,#922));
#927=IFCARBITRARYCLOSEDPROFILEDEF(.AREA.,$,#926);
#928=IFCDIRECTION((0.,0.,1.));
#929=IFCCARTESIANPOINT((0.,0.,0.));
#930=IFCAXIS2PLACEMENT3D(#929,$,$);
#931=IFCEXTRUDEDAREASOLID(#927,#930,#928,0.69999999999999996);
#932=IFCSHAPEREPRESENTATION(#11,'Body','SweptSolid',(#931));
#933=IFCPRODUCTDEFINITIONSHAPE($,$,(#932));
#934=IFCCARTESIANPOINT((1.,1.5,0.));
#935=IFCDIRECTION((0.,0.,1.));
#936=IFCDIRECTION((1.,0.,0.));
#937=IFCAXIS2PLACEMENT3D(#934,#935,#936);
#938=IFCLOCALPLACEMENT($,#937);
#939=IFCCOLOURRGB('SurfaceColor',0.29999999999999999,0.29999999999999999,0.29999999999999999);
#940=IFCSURFACESTYLESHADING(#939,0.);
#941=IFCSURFACESTYLE('MaterialStyle',.BOTH.,(#940));
#942=IFCSTYLEDITEM(#931,(#941),$);
ENDSEC;
END-ISO-10303-21;
